<?xml version="1.0" encoding="utf-8"?>
<!-- Generator: Adobe Illustrator 18.1.1, SVG Export Plug-In . SVG Version: 6.00 Build 0)  -->
<svg version="1.1" id="Capa_1" xmlns="http://www.w3.org/2000/svg" xmlns:xlink="http://www.w3.org/1999/xlink" x="0px" y="0px"
	 viewBox="0 0 612 792" enable-background="new 0 0 612 792" xml:space="preserve">
<g>
	<path fill="#2D2D2D" d="M180.2,581.5h10.5v-37.7h67.1v37.7h10.5v-37.7h69.2v37.7h10.5v-37.7h73.4v37.7h10.5v-37.7h60.8v-10.5h-60.8
		v-69.2h60.8v-10.5h-60.8v-62.9h60.8v-12.6h-60.8v-41.9h-10.5v41.9h-73.4v-41.9h-10.5v41.9h-69.2v-41.9h-10.5v41.9h-67.1v-41.9
		h-10.5v41.9h-71.3v10.5h71.3v62.9h-71.3V462h71.3v69.2h-71.3v10.5h71.3V581.5z M268.2,533.3v-69.2h69.2v69.2H268.2z M423.3,533.3
		H350v-69.2h73.4V533.3z M423.3,388.7v62.9H350v-62.9H423.3z M339.5,388.7v62.9h-69.2v-62.9C268.2,388.7,339.5,388.7,339.5,388.7z
		 M190.7,388.7h67.1v62.9h-67.1V388.7z M190.7,464.1h67.1v69.2h-67.1V464.1z"/>
	<path fill="#2D2D2D" d="M565.9,179.1h-71.4h-10.5v44c0,12.6-10.5,21-21,21H438c-12.6,0-21-10.5-21-21v-44h-29.3v44
		c0,12.6-10.5,21-21,21h-25.2c-12.6,0-21-10.5-21-21v-44h-29.3v44c0,12.6-10.5,21-21,21h-25.2c-12.6,0-21-10.5-21-21v-44h-31.4v44
		c0,12.6-10.5,21-21,21h-25.2c-12.6,0-21-10.5-21-21v-44H46.1v471.6h37.7h452.7h29.5V179.1z M532.3,615H79.6V313.2h452.7V615z"/>
	<path fill="#2D2D2D" d="M142.5,229.4h25.2c2.1,0,6.3-2.1,6.3-6.3v-75.5c0-2.1-2.1-6.3-6.3-6.3h-25.2c-2.1,0-6.3,2.1-6.3,6.3v75.5
		C138.3,227.3,140.4,229.4,142.5,229.4z"/>
	<path fill="#2D2D2D" d="M243.1,229.4h25.2c2.1,0,6.3-2.1,6.3-6.3v-75.5c0-2.1-2.1-6.3-6.3-6.3h-25.2c-2.1,0-6.3,2.1-6.3,6.3v75.5
		C236.8,227.3,238.9,229.4,243.1,229.4z"/>
	<path fill="#2D2D2D" d="M341.6,229.4h25.2c2.1,0,6.3-2.1,6.3-6.3v-75.5c0-2.1-2.1-6.3-6.3-6.3h-25.2c-2.1,0-6.3,2.1-6.3,6.3v75.5
		C335.3,227.3,337.4,229.4,341.6,229.4z"/>
	<path fill="#2D2D2D" d="M438,229.4h25.2c2.1,0,6.3-2.1,6.3-6.3v-75.5c0-2.1-2.1-6.3-6.3-6.3H438c-2.1,0-6.3,2.1-6.3,6.3v75.5
		C431.7,227.3,433.8,229.4,438,229.4z"/>
</g>
</svg>
