<?xml version="1.0" encoding="utf-8"?>
<!-- Generator: Adobe Illustrator 18.1.1, SVG Export Plug-In . SVG Version: 6.00 Build 0)  -->
<svg version="1.1" id="Capa_1" xmlns="http://www.w3.org/2000/svg" xmlns:xlink="http://www.w3.org/1999/xlink" x="0px" y="0px"
	 viewBox="-273 365 64 64" enable-background="new -273 365 64 64" xml:space="preserve">
<g>
	<path fill="#2D2D2D" d="M-238.9,409c6.5,0,11.7-5.3,11.7-11.7c0-6.5-5.3-11.7-11.7-11.7c-6.5,0-11.7,5.3-11.7,11.7
		C-250.6,403.7-245.4,409-238.9,409z"/>
	<path fill="#2D2D2D" d="M-238.9,412.1c8.2,0,14.9-6.7,14.9-14.9c0-8.2-6.7-14.9-14.9-14.9s-14.9,6.7-14.9,14.9
		C-253.8,405.5-247.1,412.1-238.9,412.1z M-238.9,384.6c6.9,0,12.6,5.7,12.6,12.6s-5.7,12.6-12.6,12.6s-12.6-5.7-12.6-12.6
		S-245.8,384.6-238.9,384.6z"/>
	<path fill="#2D2D2D" d="M-215.7,413.5l-0.9-33.4c0-0.7-0.6-1.3-1.3-1.3c-0.2,0-0.4,0-0.5,0.1v0c0,0,0,0-0.1,0.1
		c-0.1,0.1-0.2,0.2-0.3,0.3c-1,0.8-4,4-4.2,8.3c-0.4,6.6,2.8,9.2,3.9,11.7l-0.9,14.3c0,0.7,1.5,1.3,2.2,1.3
		C-217.2,414.8-215.7,414.2-215.7,413.5z"/>
	<path fill="#2D2D2D" d="M-264,393.2l2.2,1.1c0.3,0.1,0.5,0.2,0.8,0.3l-0.9,19.5c0,0.6,1.5,1.1,2.2,1.1s2.2-0.5,2.2-1.1l-0.9-19.6
		c0.3-0.1,0.6-0.2,0.9-0.4l1.7-1c1.2-0.7,2.1-2.3,2.1-3.8v-8.8c0-0.7-0.6-1.3-1.3-1.3c-0.7,0-1.3,0.6-1.3,1.3v7.9h-0.7v-7.9
		c0-0.7-0.6-1.3-1.3-1.3s-1.3,0.6-1.3,1.3v7.9h-0.7v-7.9c0-0.7-0.6-1.3-1.3-1.3c-0.7,0-1.3,0.6-1.3,1.3v7.9h-0.7v-7.6
		c0-0.7-0.6-1.3-1.3-1.3s-1.3,0.6-1.3,1.3v8.6C-266.3,390.9-265.3,392.5-264,393.2z"/>
</g>
</svg>
