<?xml version="1.0" encoding="utf-8"?>
<!-- Generator: Adobe Illustrator 18.1.1, SVG Export Plug-In . SVG Version: 6.00 Build 0)  -->
<svg version="1.1" id="Layer_1" xmlns="http://www.w3.org/2000/svg" xmlns:xlink="http://www.w3.org/1999/xlink" x="0px" y="0px"
	 viewBox="0 0 612 792" enable-background="new 0 0 612 792" xml:space="preserve">
<g>
	<path fill="#2D2D2D" d="M303.8,429h-12.7c-7.3,0-12.7-5.5-12.7-12.7c0-1.8,1.8-5.5,1.8-7.3c7.3-7.3,12.7-16.4,18.2-27.3
		c1.8,0,1.8,1.8,3.6,1.8c7.3,0,16.4-16.4,16.4-27.3s-1.8-20-7.3-20h-1.8c0-29.1-7.3-65.4-52.7-65.4s-50.9,36.3-52.7,65.4h-1.8
		c-7.3,0-7.3,9.1-7.3,20s9.1,27.3,16.4,27.3h1.8c3.6,10.9,10.9,20,18.2,27.3c1.8,1.8,1.8,3.6,1.8,7.3c0,7.3-5.5,12.7-12.7,12.7
		h-12.7c-27.3,0-49.1,21.8-49.1,49.1v12.7c0,9.1,7.3,16.4,16.4,16.4h163.5c9.1,0,16.4-7.3,16.4-16.4v-12.7
		C352.9,450.8,331.1,429,303.8,429z"/>
	<path fill="#2D2D2D" d="M449.2,294.5H312.9c3.6,9.1,7.3,20,7.3,32.7c3.6,1.8,5.5,5.5,7.3,9.1h121.7c5.5,0,10.9-5.5,10.9-10.9v-18.2
		C461.9,300,456.4,294.5,449.2,294.5z"/>
	<path fill="#2D2D2D" d="M449.2,370.8H329.3c-3.6,12.7-10.9,25.4-21.8,29.1c0,0,0,1.8-1.8,1.8v10.9h143.5c5.5,0,10.9-5.5,10.9-10.9
		v-18.2C461.9,374.5,456.4,370.8,449.2,370.8z"/>
	<path fill="#2D2D2D" d="M449.2,445.3h-92.7c5.5,9.1,9.1,21.8,9.1,32.7v7.3h83.6c5.5,0,10.9-5.5,10.9-10.9v-18.2
		C461.9,450.8,456.4,445.3,449.2,445.3z"/>
	<path fill="#2D2D2D" d="M500,181.9H120.3c-38.2,0-70.9,30.9-70.9,70.9v279.8c0,38.2,30.9,70.9,70.9,70.9H500
		c38.2,0,70.9-30.9,70.9-70.9V252.7C569.1,212.8,538.2,181.9,500,181.9z M536.4,530.7c0,20-16.4,36.3-36.3,36.3H120.3
		c-20,0-36.3-16.4-36.3-36.3V250.9c0-20,16.4-36.3,36.3-36.3H500c20,0,36.3,16.4,36.3,36.3V530.7z"/>
</g>
</svg>
