<?xml version="1.0" encoding="utf-8"?>
<!-- Generator: Adobe Illustrator 18.1.1, SVG Export Plug-In . SVG Version: 6.00 Build 0)  -->
<svg version="1.1" id="Ebene_1" xmlns="http://www.w3.org/2000/svg" xmlns:xlink="http://www.w3.org/1999/xlink" x="0px" y="0px"
	 viewBox="0 0 612 792" enable-background="new 0 0 612 792" xml:space="preserve">
<g>
	<line fill="none" stroke="#000000" stroke-width="0.162" stroke-miterlimit="3.8637" x1="313.7" y1="397.4" x2="336.5" y2="398"/>
	<polyline fill="none" stroke="#000000" stroke-width="2.1702" stroke-miterlimit="3.8637" points="549,364.1 543.1,368.1 
		543,459.4 299.7,459.1 69.7,459 69.5,371.4 62.7,367.1 	"/>
	<path fill="#FFFFFF" stroke="#FFFFFF" stroke-width="0.3844" stroke-miterlimit="3.8637" d="M304.7,423l4.2-0.1l7.3,0.3
		c0,0,1.2-6.9,7.6-7c6.4-0.1,7.2,6.6,7.2,6.6h9.6c0,0,1.6-6.8,6.5-6.8c6.9,0,7.7,7,7.7,7h10.4c0,0,1.9-5.7,7.6-5.6
		c7,0.2,7.3,6,7.3,6l7.3-0.1v-13.9l-78.3-2.1l-4.1,0.7L304.7,423L304.7,423z"/>
	<path fill="#FFFFFF" stroke="#000000" stroke-width="0.3844" stroke-miterlimit="3.8637" d="M295.2,459.4l-7.7-3.5l-0.2-0.6h-4.8
		l-42.5,0.3L113.1,459l-43.4,0.3v-21.7l43.4-0.2l32.9-0.3h41.7l52.4-1.1h42.5l4.8,0v0.4l17.6-0.2c-0.1-1.2-0.1-14.4-0.1-14.4
		l4.1-0.4l78.4,1.8l0.1,14.1l18.6,0.2l0.2,14.3l15,0.1v-15.2l4.5-1.8l5,1.8v15.2l22.8,0.1l-0.1-15.4l4.4-1.8l3.9,1.9l-0.2,15.2
		l23.3-0.1v-15.2l4-1.7l3.9,1.8l-0.1,15.2l23,0.1l0.1-15.5l4.2-1.6l3.7,1.8l0.1,15.4l18.9-0.1l0.1,7.1l-243,0.2L295.2,459.4
		L295.2,459.4z"/>
	<polygon fill="#DADADA" stroke="#000000" stroke-width="0.6701" stroke-miterlimit="3.8637" points="387.5,437.4 405.6,437.8 
		405.5,456 402.4,455.9 402.4,452.4 398.6,452.3 398.6,449.5 395.1,449.5 395,445.9 391.8,445.9 391.7,442.9 387.4,442.9 
		387.5,437.4 	"/>
	<polygon fill="#FFFFFF" stroke="#000000" stroke-width="0.3844" stroke-miterlimit="3.8637" points="187.9,437.8 146.1,437.1 
		113.3,437.4 69.7,438.3 69.5,371.2 113.4,368.7 146,370.3 187.6,367.7 187.9,311.2 251,305.3 282.7,308.7 287.4,307 406.4,317.8 
		406.3,364.2 465,368 495.2,365 543.3,368.1 543,452.3 524,452.1 406.4,452.1 406.2,437.7 387.5,437.4 387.4,401.9 308.5,399 
		304.7,399.6 304.9,436.4 287.4,436.5 287.2,436.9 196.4,436.7 187.9,437.8 	"/>
	<path fill="#FFFFFF" stroke="#000000" stroke-width="0.6893" stroke-miterlimit="3.8637" d="M391,327.1l11.5,1c0,0-0.4,0.5-0.4,1.2
		c0,0.9,0.1,70.5,0.1,70.5l-10.8-0.4c0,0-0.1-71.1-0.1-71.6C391.3,327.4,391,327.1,391,327.1L391,327.1z"/>
	<line fill="none" stroke="#000000" stroke-width="0.896" stroke-miterlimit="3.8637" x1="68.2" y1="528.7" x2="543" y2="528.7"/>
	<path fill="#DADADA" stroke="#000000" stroke-width="2.1702" stroke-miterlimit="3.8637" d="M180.9,308.7l71-7.4l30.7,3.5l4.8-2.3
		l127.3,12.6c0,0-7.9-2.5-14.4-7c-6.6-4.5-65.4-64-65.4-64l-52.3-7.3l-17.1,24.9l-18.1-2.2c0,0-40.7,36.2-46.6,41.4
		C197.1,304.2,180.9,308.7,180.9,308.7L180.9,308.7z"/>
	<polyline fill="none" stroke="#000000" stroke-width="1.0875" stroke-miterlimit="3.8637" points="265.4,261.9 274.3,263.2 
		282.6,305 	"/>
	<path fill="#DADADA" stroke="#000000" stroke-width="2.1702" stroke-miterlimit="3.8637" d="M61.2,367.9c0,0,10.8-2.5,12.3-3.2
		c2.3-1.1,5.4-3,7.8-4.9c5-4,45.5-42.1,45.5-42.1l18.3,1.6l12.3,11.4l30.1-2.6l0.1,35.8l-41.8,2.8l-33.6-2L61.2,367.9L61.2,367.9z"
		/>
	<path fill="#DADADA" stroke="#000000" stroke-width="2.1702" stroke-miterlimit="3.8637" d="M495.7,360.8l-30.8,3.2l-58.5-3.8
		v-33.7l42.8,3.7l17.1-16l24.9-2.4c0,0,37.8,43,40.7,45.6c4.1,3.5,18.4,6.8,18.4,6.8L495.7,360.8L495.7,360.8z"/>
	<polygon fill="#FFFFFF" stroke="#000000" stroke-width="0.5237" stroke-miterlimit="3.8637" points="406.4,436.7 542.4,438.8 
		542.3,452.9 406.4,452.1 406.4,436.7 	"/>
	<path fill="none" stroke="#000000" stroke-width="0.5237" stroke-miterlimit="3.8637" d="M408.7,436.8l-0.1,15.3 M410.9,436.8v15.3
		 M412.9,436.8v15.3 M414.9,436.8v15.3 M417.1,436.8v15.3 M419.1,436.8v15.3 M433.1,436.8v15.3 M435.3,436.8v15.3 M437.4,436.8v15.3
		 M439.3,436.8v15.3 M441.5,437.1l0,15 M443.5,437.2l0,14.9 M445.6,437.3l0,14.8 M447.5,437.3l0,14.8 M449.7,437.3l0,14.8
		 M451.7,437.3l0,14.8 M463.9,437.4l0,14.7 M466,437.6l0.1,14.5 M468.1,437.6l0,14.5 M470.1,437.6l0,14.5 M472.3,437.7l0,14.4
		 M474.3,437.7l0,14.4 M476.3,437.7l0,14.4 M478.3,437.7l0,14.4 M480.4,437.8l0,14.3 M482.5,437.8l0,14.5 M495,438v14.5 M497.2,438
		v14.6 M499.2,438l0,14.6 M501.2,438.1v14.5 M503.4,438.1v14.5 M505.4,438.2l0,14.6 M507.4,438.2l0,14.5 M509.4,438.2l0,14.6
		 M511.5,438.3l0.1,14.3 M513.6,438.3l0,14.4 M526.2,438.5l0,14.1 M528.2,438.5l0,14.2 M530.2,438.6l0,14.2 M532.2,438.5l0,14.2
		 M534.3,438.5l0,14.2 M540.4,438.6l0,14.2"/>
	<polygon stroke="#000000" stroke-width="0.7638" stroke-miterlimit="3.8637" points="314.2,225.4 314.2,233.3 312.4,233 
		312.3,225.2 314.2,225.4 	"/>
	<polygon stroke="#000000" stroke-width="0.7638" stroke-miterlimit="3.8637" points="321.2,227.2 323.1,227.9 323.1,235.3 
		321.2,234.6 321.2,227.2 	"/>
	<path fill="#FFFFFF" stroke="#000000" stroke-width="0.7638" stroke-miterlimit="3.8637" d="M289.3,318.8l13.1,1.1
		c0,0-0.6,0.5-0.6,1.3c-0.1,0.8,0,75.8,0,75.8l-12.1-0.2c0,0,0-76.3,0-76.7C289.7,319.5,289.3,318.8,289.3,318.8L289.3,318.8z"/>
	<path d="M73.1,554l9.7-10.7c0.4-0.4,0.6-0.8,0.6-1.1c0-0.4-0.4-0.7-1.1-0.8c-0.4-0.1-0.9-0.1-1.6-0.1v-1c1.6,0.1,3.1,0.2,4.4,0.2
		c1.3,0,2.8-0.1,4.4-0.2v1c-1,0-1.8,0.2-2.4,0.3c-0.9,0.3-1.8,0.9-2.7,1.9l-7.4,8.1l9.5,13.6c0.9,1.2,1.7,2,2.5,2.3
		c0.6,0.2,1.4,0.4,2.4,0.4v1c-2.1-0.2-4-0.3-5.6-0.3c-1.6,0-3.4,0.1-5.6,0.3v-1c0.8-0.1,1.3-0.1,1.8-0.2c0.8-0.1,1.2-0.4,1.2-0.9
		c0-0.3-0.3-0.8-0.8-1.5l-7.7-11.4l-1.8,1.9v9.3c0,0.9,0.1,1.5,0.3,1.8c0.4,0.6,1.4,1,3.2,1.1v1c-1.9-0.2-3.6-0.3-5-0.3
		c-1.4,0-3.2,0.1-5.4,0.3v-1c1.2-0.1,2-0.2,2.5-0.4c0.6-0.3,0.9-0.7,1-1.2c0.1-0.3,0.1-0.6,0.1-1.2v-21c0-0.9-0.1-1.5-0.3-1.8
		c-0.3-0.5-0.8-0.8-1.8-0.9c-0.4-0.1-0.9-0.1-1.5-0.1v-1c2.2,0.2,4,0.3,5.4,0.3c1.4,0,3.1-0.1,5.2-0.3v1c-1.2,0.1-2,0.2-2.5,0.4
		c-0.6,0.3-0.9,0.7-1,1.2c0,0.2-0.1,0.6-0.1,1.2V554L73.1,554z"/>
	<path fill-rule="evenodd" clip-rule="evenodd" d="M110.4,560.7h-9.9l-1.4,4c-0.3,1-0.5,1.6-0.5,2c0,0.6,0.4,1,1.1,1.1
		c0.4,0.1,0.9,0.1,1.7,0.2v1c-1.6-0.2-3-0.2-4.1-0.2c-1.1,0-2.4,0.1-4.1,0.2v-1c1.3-0.1,2.1-0.3,2.6-0.6c0.5-0.4,1-1.2,1.5-2.4
		l9.8-25.5l8.8,26c0.4,1.2,1,1.9,1.7,2.1c0.5,0.2,1.3,0.3,2.3,0.4v1c-2-0.2-3.7-0.3-5.2-0.3c-1.5,0-3.3,0.1-5.2,0.3v-1
		c0.8-0.1,1.4-0.1,1.8-0.3c0.6-0.2,1-0.5,1-1c0-0.4-0.1-0.9-0.3-1.4L110.4,560.7L110.4,560.7z M100.9,559.3h9l-4.2-13.1L100.9,559.3
		L100.9,559.3z"/>
	<path d="M126,565.2v-21c0-0.9-0.1-1.5-0.3-1.8c-0.3-0.5-0.8-0.8-1.8-0.9c-0.4-0.1-0.9-0.1-1.5-0.1v-1c2.2,0.2,4,0.3,5.4,0.3
		c1.4,0,3.2-0.1,5.4-0.3v1c-1.2,0.1-2,0.2-2.5,0.4c-0.6,0.3-0.9,0.7-1,1.2c0,0.2-0.1,0.6-0.1,1.2v21c0,0.9,0.1,1.5,0.3,1.8
		c0.3,0.5,0.8,0.8,1.8,0.9c0.3,0,0.8,0.1,1.5,0.1v1c-2.3-0.2-4.1-0.3-5.4-0.3c-1.3,0-3.1,0.1-5.4,0.3v-1c1.2-0.1,2-0.2,2.5-0.4
		c0.6-0.3,0.9-0.7,1-1.2C125.9,566.1,126,565.7,126,565.2L126,565.2z"/>
	<path d="M137.8,560.3h1c0.8,5.1,3.4,7.7,7.5,7.7c1.8,0,3.3-0.6,4.4-1.7c1-1.1,1.5-2.4,1.5-4c0-1.7-0.6-3.1-1.9-4
		c-0.6-0.5-2-1.3-4.1-2.3c-3.2-1.6-5.2-2.8-6-3.6c-1.3-1.2-2-2.8-2-4.8c0-2.3,0.8-4.1,2.3-5.5c1.5-1.3,3.4-2,5.8-2
		c2.2,0,4,0.7,5.6,2.2l1.3-2.4h0.8v7.9h-1c-0.3-1.5-0.8-2.8-1.4-3.7c-1.1-1.8-2.7-2.7-4.9-2.7c-1.6,0-2.9,0.5-3.9,1.6
		c-1,1-1.5,2.2-1.5,3.6c0,1.6,0.8,2.9,2.4,3.9c0.7,0.4,2.1,1.2,4.2,2.2c2.3,1.2,3.9,2.1,4.9,2.8c1.7,1.3,2.6,3.2,2.6,5.6
		c0,2.4-0.8,4.4-2.5,6c-1.6,1.5-3.6,2.2-6.1,2.2c-2.6,0-4.8-0.8-6.8-2.5l-1.5,2.7h-0.8V560.3L137.8,560.3z"/>
	<path d="M179.5,562l-1,6.9h-18.9v-1c1.2-0.1,2-0.2,2.5-0.4c0.6-0.3,0.9-0.7,1-1.2c0-0.2,0.1-0.6,0.1-1.2v-20.8
		c0-0.9-0.1-1.5-0.3-1.8c-0.4-0.6-1.5-1-3.3-1.1v-1h18.6l0.8,6.4h-1c-0.5-1.9-1.1-3.2-1.7-4c-0.7-0.8-1.8-1.1-3.3-1.1h-6.2v11.7h6.1
		c0.8,0,1.3-0.1,1.6-0.4c0.5-0.5,0.8-1.5,0.9-3.2h1v8.4h-1c0-1.3-0.2-2.2-0.6-2.7c-0.4-0.5-1.1-0.8-2.2-0.8h-5.9v10.3
		c0,0.8,0.1,1.3,0.2,1.5c0.3,0.7,1.2,1,2.7,1h3c1.6,0,2.8-0.3,3.6-1c1-0.9,1.7-2.4,2.3-4.6H179.5L179.5,562z"/>
	<path fill-rule="evenodd" clip-rule="evenodd" d="M190.9,555.4v9.8c0,0.9,0.1,1.5,0.3,1.8c0.3,0.5,0.9,0.8,1.8,0.9
		c0.3,0,0.8,0.1,1.5,0.1v1c-2.2-0.2-4-0.3-5.3-0.3c-1.3,0-3.1,0.1-5.4,0.3v-1c1.2-0.1,2-0.2,2.5-0.4c0.6-0.3,0.9-0.7,1-1.2
		c0-0.2,0.1-0.6,0.1-1.2v-20.9c0-0.9-0.1-1.5-0.3-1.8c-0.4-0.6-1.5-1-3.3-1.1v-1h11.5c2.6,0,4.5,0.5,5.9,1.4c1,0.7,1.8,1.5,2.3,2.7
		c0.6,1.1,0.9,2.3,0.9,3.5c0,1.8-0.6,3.4-1.8,4.8c-1.1,1.2-2.8,2-5.2,2.5c0.6,0.2,1.2,0.5,1.8,0.9c0.6,0.4,1.2,1.3,1.9,2.8l2.9,6.8
		c0.5,1.2,1.1,1.9,1.6,2.2c0.4,0.2,1,0.3,1.9,0.3v1c-1.1-0.1-2.1-0.1-2.8-0.1c-0.7,0-1.7,0-2.8,0.1c-0.4-0.9-0.8-1.8-1.2-2.6
		l-3.3-7.7c-0.4-1-0.9-1.7-1.2-2.2c-0.5-0.6-1.2-1-2.2-1.1c-0.5-0.1-1-0.1-1.5-0.1H190.9L190.9,555.4z M190.9,554h3.6
		c1.9,0,3.4-0.5,4.4-1.4c1.2-1.1,1.8-2.8,1.8-4.9c0-2-0.5-3.5-1.5-4.5c-1-1-2.5-1.5-4.5-1.5h-3.8V554L190.9,554z"/>
	<polygon points="208.7,558.4 208.7,556.5 219.7,556.5 219.7,558.4 208.7,558.4 	"/>
	<path d="M229.2,554.8v10.4c0,0.9,0.1,1.5,0.3,1.8c0.3,0.5,0.8,0.8,1.8,0.9c0.3,0,0.8,0.1,1.5,0.1v1c-2.2-0.2-4-0.3-5.4-0.3
		c-1.4,0-3.1,0.1-5.4,0.3v-1c1.2-0.1,2-0.2,2.5-0.4c0.6-0.3,0.9-0.7,1-1.2c0-0.2,0.1-0.6,0.1-1.2v-20.9c0-0.9-0.1-1.5-0.3-1.8
		c-0.4-0.6-1.5-1-3.3-1.1v-1h18.6l0.8,6.4h-1c-0.4-1.6-0.8-2.7-1.3-3.4c-0.4-0.7-1-1.1-1.6-1.4c-0.5-0.2-1.3-0.3-2.2-0.3h-6.2v11.7
		h6.1c0.8,0,1.3-0.1,1.6-0.4c0.5-0.5,0.8-1.5,0.9-3.2h1v8.4h-1c0-1.3-0.2-2.2-0.6-2.8c-0.3-0.5-1-0.8-2.2-0.8H229.2L229.2,554.8z"/>
	<path fill-rule="evenodd" clip-rule="evenodd" d="M252.1,555.4v9.8c0,0.9,0.1,1.5,0.3,1.8c0.3,0.5,0.9,0.8,1.8,0.9
		c0.3,0,0.8,0.1,1.5,0.1v1c-2.2-0.2-4-0.3-5.3-0.3c-1.3,0-3.1,0.1-5.4,0.3v-1c1.2-0.1,2-0.2,2.5-0.4c0.6-0.3,0.9-0.7,1-1.2
		c0-0.2,0.1-0.6,0.1-1.2v-20.9c0-0.9-0.1-1.5-0.3-1.8c-0.4-0.6-1.5-1-3.3-1.1v-1h11.5c2.5,0,4.5,0.5,5.9,1.4c1,0.7,1.8,1.5,2.3,2.7
		c0.6,1.1,0.9,2.3,0.9,3.5c0,1.8-0.6,3.4-1.8,4.8c-1.1,1.2-2.8,2-5.2,2.5c0.6,0.2,1.2,0.5,1.8,0.9c0.6,0.4,1.2,1.3,1.9,2.8l2.9,6.8
		c0.5,1.2,1.1,1.9,1.6,2.2c0.4,0.2,1,0.3,1.9,0.3v1c-1.1-0.1-2.1-0.1-2.8-0.1c-0.7,0-1.7,0-2.8,0.1c-0.4-0.9-0.8-1.8-1.2-2.6
		l-3.3-7.7c-0.4-1-0.9-1.7-1.2-2.2c-0.5-0.6-1.2-1-2.2-1.1c-0.5-0.1-1-0.1-1.5-0.1H252.1L252.1,555.4z M252.1,554h3.6
		c1.9,0,3.4-0.5,4.4-1.4c1.2-1.1,1.8-2.8,1.8-4.9c0-2-0.5-3.5-1.5-4.5c-1-1-2.5-1.5-4.5-1.5h-3.8V554L252.1,554z"/>
	<path d="M274.8,565.2v-21c0-0.9-0.1-1.5-0.3-1.8c-0.3-0.5-0.8-0.8-1.8-0.9c-0.4-0.1-0.9-0.1-1.5-0.1v-1c2.2,0.2,4,0.3,5.4,0.3
		c1.4,0,3.2-0.1,5.4-0.3v1c-1.2,0.1-2,0.2-2.5,0.4c-0.6,0.3-0.9,0.7-1,1.2c0,0.2-0.1,0.6-0.1,1.2v21c0,0.9,0.1,1.5,0.3,1.8
		c0.3,0.5,0.8,0.8,1.8,0.9c0.3,0,0.8,0.1,1.5,0.1v1c-2.3-0.2-4.1-0.3-5.4-0.3s-3.1,0.1-5.4,0.3v-1c1.2-0.1,2-0.2,2.5-0.4
		c0.6-0.3,0.9-0.7,1-1.2C274.8,566.1,274.8,565.7,274.8,565.2L274.8,565.2z"/>
	<path d="M305.3,562l-1,6.9h-18.9v-1c1.2-0.1,2-0.2,2.5-0.4c0.6-0.3,0.9-0.7,1-1.2c0-0.2,0.1-0.6,0.1-1.2v-20.8
		c0-0.9-0.1-1.5-0.3-1.8c-0.4-0.6-1.5-1-3.3-1.1v-1h18.6l0.8,6.4h-1c-0.5-1.9-1.1-3.2-1.7-4c-0.7-0.8-1.8-1.1-3.3-1.1h-6.2v11.7h6.1
		c0.8,0,1.3-0.1,1.6-0.4c0.5-0.5,0.8-1.5,0.9-3.2h1v8.4h-1c0-1.3-0.2-2.2-0.6-2.7c-0.4-0.5-1.1-0.8-2.2-0.8h-5.9v10.3
		c0,0.8,0.1,1.3,0.2,1.5c0.3,0.7,1.2,1,2.7,1h3c1.6,0,2.8-0.3,3.6-1c1-0.9,1.7-2.4,2.3-4.6H305.3L305.3,562z"/>
	<path fill-rule="evenodd" clip-rule="evenodd" d="M312.9,565v-20.8c0-0.9-0.1-1.5-0.3-1.8c-0.4-0.6-1.5-1-3.3-1.1v-1h10.5
		c2.6,0,4.7,0.3,6.1,1c2.4,1.1,4.2,2.9,5.6,5.7c1.2,2.3,1.8,4.8,1.8,7.6c0,3.2-0.8,6-2.3,8.5c-1.6,2.6-3.8,4.4-6.6,5.2
		c-1.3,0.4-2.8,0.5-4.6,0.5h-10.5v-1c1.2-0.1,2-0.2,2.5-0.4c0.6-0.3,0.9-0.7,1-1.2C312.9,566,312.9,565.6,312.9,565L312.9,565z
		 M316.6,541.7v23.7c0,0.7,0.1,1.2,0.2,1.4c0.2,0.4,0.7,0.6,1.4,0.7c0.3,0,0.7,0.1,1.3,0.1c3.1,0,5.5-0.8,7-2.4
		c2.1-2.2,3.1-5.8,3.1-10.7c0-4.5-0.9-7.9-2.8-10.2c-1.4-1.8-3.7-2.7-6.8-2.7H316.6L316.6,541.7z"/>
	<path fill-rule="evenodd" clip-rule="evenodd" d="M344.7,555.4v9.8c0,0.9,0.1,1.5,0.3,1.8c0.3,0.5,0.9,0.8,1.8,0.9
		c0.3,0,0.8,0.1,1.5,0.1v1c-2.2-0.2-4-0.3-5.3-0.3c-1.3,0-3.1,0.1-5.4,0.3v-1c1.2-0.1,2-0.2,2.5-0.4c0.6-0.3,0.9-0.7,1-1.2
		c0-0.2,0.1-0.6,0.1-1.2v-20.9c0-0.9-0.1-1.5-0.3-1.8c-0.4-0.6-1.5-1-3.3-1.1v-1H349c2.5,0,4.5,0.5,5.9,1.4c1,0.7,1.8,1.5,2.3,2.7
		c0.6,1.1,0.9,2.3,0.9,3.5c0,1.8-0.6,3.4-1.8,4.8c-1.1,1.2-2.8,2-5.2,2.5c0.6,0.2,1.2,0.5,1.8,0.9c0.6,0.4,1.2,1.3,1.9,2.8l2.9,6.8
		c0.5,1.2,1.1,1.9,1.6,2.2c0.4,0.2,1,0.3,1.9,0.3v1c-1.1-0.1-2.1-0.1-2.8-0.1c-0.7,0-1.7,0-2.8,0.1c-0.4-0.9-0.8-1.8-1.2-2.6
		l-3.3-7.7c-0.4-1-0.9-1.7-1.2-2.2c-0.5-0.6-1.2-1-2.2-1.1c-0.5-0.1-1-0.1-1.5-0.1H344.7L344.7,555.4z M344.7,554h3.6
		c1.9,0,3.4-0.5,4.4-1.4c1.2-1.1,1.8-2.8,1.8-4.9c0-2-0.5-3.5-1.5-4.5c-1-1-2.5-1.5-4.5-1.5h-3.8V554L344.7,554z"/>
	<path d="M367.4,565.2v-21c0-0.9-0.1-1.5-0.3-1.8c-0.3-0.5-0.8-0.8-1.8-0.9c-0.4-0.1-0.9-0.1-1.5-0.1v-1c2.2,0.2,4,0.3,5.4,0.3
		c1.4,0,3.2-0.1,5.4-0.3v1c-1.2,0.1-2,0.2-2.5,0.4c-0.6,0.3-0.9,0.7-1,1.2c0,0.2-0.1,0.6-0.1,1.2v21c0,0.9,0.1,1.5,0.3,1.8
		c0.3,0.5,0.8,0.8,1.8,0.9c0.3,0,0.8,0.1,1.5,0.1v1c-2.3-0.2-4.1-0.3-5.4-0.3s-3.1,0.1-5.4,0.3v-1c1.2-0.1,2-0.2,2.5-0.4
		c0.6-0.3,0.9-0.7,1-1.2C367.4,566.1,367.4,565.7,367.4,565.2L367.4,565.2z"/>
	<path d="M398.2,559.3h1.5c-0.1,2.2-0.5,4-1.3,5.5c-0.8,1.5-2,2.7-3.5,3.5c-1.4,0.8-2.9,1.1-4.6,1.1c-2.3,0-4.4-0.7-6.2-2
		c-1.9-1.4-3.3-3.4-4.2-6.2c-0.6-2-1-4.2-1-6.5c0-4.3,1-7.9,3-10.7c1-1.4,2.3-2.5,4-3.3c1.4-0.6,2.8-0.9,4.5-0.9
		c2.6,0,4.9,0.9,6.7,2.6l1.5-2.5h0.8v8.4h-1c-1.2-4.7-3.7-7.1-7.5-7.1c-2.9,0-4.9,1.3-6.2,3.8c-1.3,2.5-1.9,5.6-1.9,9.5
		c0,3.7,0.6,6.6,1.7,9c1.3,2.7,3.4,4,6.3,4c1.9,0,3.4-0.6,4.7-1.8C397.2,564.4,398,562.2,398.2,559.3L398.2,559.3z"/>
	<path d="M411.7,553.4h12v-9.2c0-0.9-0.1-1.5-0.3-1.8c-0.3-0.5-0.8-0.8-1.8-0.9c-0.4-0.1-0.9-0.1-1.5-0.1v-1c2.2,0.2,4,0.3,5.4,0.3
		c1.4,0,3.2-0.1,5.3-0.3v1c-1.2,0.1-2,0.2-2.5,0.4c-0.6,0.3-0.9,0.7-1,1.2c0,0.2-0.1,0.6-0.1,1.2v21c0,0.9,0.1,1.5,0.3,1.8
		c0.3,0.5,0.8,0.8,1.8,0.9c0.3,0,0.8,0.1,1.5,0.1v1c-2.2-0.2-4-0.3-5.3-0.3c-1.3,0-3.1,0.1-5.4,0.3v-1c1.2-0.1,2-0.2,2.5-0.4
		c0.6-0.3,0.9-0.7,1-1.2c0-0.2,0.1-0.6,0.1-1.2v-10.5h-12v10.5c0,0.9,0.1,1.5,0.3,1.8c0.3,0.5,0.9,0.8,1.8,0.9
		c0.3,0,0.8,0.1,1.5,0.1v1c-2.3-0.2-4.1-0.3-5.4-0.3c-1.3,0-3.1,0.1-5.3,0.3v-1c1.2-0.1,2-0.2,2.5-0.4c0.6-0.3,0.9-0.7,1-1.2
		c0-0.2,0.1-0.6,0.1-1.2v-21c0-0.9-0.1-1.5-0.3-1.8c-0.3-0.5-0.8-0.8-1.8-0.9c-0.4-0.1-0.9-0.1-1.5-0.1v-1c2.1,0.2,3.9,0.3,5.3,0.3
		c1.4,0,3.2-0.1,5.4-0.3v1c-1.2,0.1-2,0.2-2.5,0.4c-0.6,0.3-0.9,0.7-1,1.2c0,0.2-0.1,0.6-0.1,1.2V553.4L411.7,553.4z"/>
	<polygon points="433.1,558.4 433.1,556.5 444,556.5 444,558.4 433.1,558.4 	"/>
	<path d="M468.6,544.2v15.7c0,1.8-0.2,3.2-0.5,4.1c-0.7,1.9-1.8,3.3-3.6,4.2c-1.5,0.8-3.4,1.3-5.5,1.3c-3.2,0-5.7-1-7.5-2.9
		c-1-1-1.6-2.2-1.8-3.6c-0.1-0.8-0.2-1.7-0.2-2.8v-16c0-0.9-0.1-1.5-0.3-1.8c-0.3-0.5-0.8-0.8-1.8-0.9c-0.4-0.1-0.9-0.1-1.5-0.1v-1
		c2.2,0.2,4,0.3,5.4,0.3c1.4,0,3.2-0.1,5.4-0.3v1c-1.2,0.1-2,0.2-2.5,0.4c-0.6,0.3-0.9,0.7-1,1.2c0,0.2-0.1,0.6-0.1,1.2v16.3
		c0,1.7,0.2,2.9,0.5,3.7c0.5,1.2,1.4,2.1,2.7,2.6c1,0.4,2.2,0.7,3.5,0.7c1.4,0,2.7-0.2,3.8-0.7c1.1-0.5,2-1.2,2.5-2.1
		c0.7-1.1,1-2.6,1-4.7v-15.9c0-0.9-0.1-1.5-0.3-1.8c-0.3-0.5-0.8-0.8-1.8-0.9c-0.4-0.1-0.9-0.1-1.5-0.1v-1c2,0.1,3.4,0.2,4.3,0.2
		c1,0,2.4-0.1,4.2-0.2v1c-1.2,0.1-2,0.2-2.5,0.4c-0.6,0.3-0.9,0.7-1,1.2C468.7,543.2,468.6,543.6,468.6,544.2L468.6,544.2z"/>
	<path d="M482.8,554.8v10.4c0,0.9,0.1,1.5,0.3,1.8c0.3,0.5,0.8,0.8,1.8,0.9c0.3,0,0.8,0.1,1.5,0.1v1c-2.2-0.2-4-0.3-5.4-0.3
		c-1.4,0-3.1,0.1-5.4,0.3v-1c1.2-0.1,2-0.2,2.5-0.4c0.6-0.3,0.9-0.7,1-1.2c0-0.2,0.1-0.6,0.1-1.2v-20.9c0-0.9-0.1-1.5-0.3-1.8
		c-0.4-0.6-1.5-1-3.3-1.1v-1h18.6l0.8,6.4h-1c-0.4-1.6-0.8-2.7-1.3-3.4c-0.4-0.7-1-1.1-1.6-1.4c-0.5-0.2-1.3-0.3-2.2-0.3h-6.2v11.7
		h6.1c0.8,0,1.3-0.1,1.6-0.4c0.5-0.5,0.8-1.5,0.9-3.2h1v8.4h-1c0-1.3-0.2-2.2-0.6-2.8c-0.3-0.5-1-0.8-2.2-0.8H482.8L482.8,554.8z"/>
	<path d="M518.4,562l-1,6.9h-18.9v-1c1.2-0.1,2-0.2,2.5-0.4c0.6-0.3,0.9-0.7,1-1.2c0-0.2,0.1-0.6,0.1-1.2v-20.8
		c0-0.9-0.1-1.5-0.3-1.8c-0.4-0.6-1.5-1-3.3-1.1v-1h18.6l0.8,6.4h-1c-0.5-1.9-1.1-3.2-1.7-4c-0.7-0.8-1.8-1.1-3.3-1.1h-6.2v11.7h6.1
		c0.8,0,1.3-0.1,1.6-0.4c0.5-0.5,0.8-1.5,0.9-3.2h1v8.4h-1c0-1.3-0.2-2.2-0.6-2.7c-0.4-0.5-1.1-0.8-2.2-0.8h-5.9v10.3
		c0,0.8,0.1,1.3,0.2,1.5c0.3,0.7,1.2,1,2.7,1h3c1.6,0,2.8-0.3,3.6-1c1-0.9,1.7-2.4,2.3-4.6H518.4L518.4,562z"/>
	<path fill-rule="evenodd" clip-rule="evenodd" d="M529.7,555.4v9.8c0,0.9,0.1,1.5,0.3,1.8c0.3,0.5,0.9,0.8,1.8,0.9
		c0.3,0,0.8,0.1,1.5,0.1v1c-2.2-0.2-4-0.3-5.3-0.3c-1.3,0-3.1,0.1-5.4,0.3v-1c1.2-0.1,2-0.2,2.5-0.4c0.6-0.3,0.9-0.7,1-1.2
		c0-0.2,0.1-0.6,0.1-1.2v-20.9c0-0.9-0.1-1.5-0.3-1.8c-0.4-0.6-1.5-1-3.3-1.1v-1h11.5c2.6,0,4.5,0.5,5.9,1.4c1,0.7,1.8,1.5,2.3,2.7
		c0.6,1.1,0.9,2.3,0.9,3.5c0,1.8-0.6,3.4-1.8,4.8c-1.1,1.2-2.8,2-5.2,2.5c0.6,0.2,1.2,0.5,1.8,0.9c0.6,0.4,1.2,1.3,1.9,2.8l2.9,6.8
		c0.5,1.2,1.1,1.9,1.6,2.2c0.4,0.2,1,0.3,1.9,0.3v1c-1.1-0.1-2.1-0.1-2.8-0.1c-0.7,0-1.7,0-2.8,0.1c-0.4-0.9-0.8-1.8-1.2-2.6
		l-3.3-7.7c-0.4-1-0.9-1.7-1.2-2.2c-0.5-0.6-1.2-1-2.2-1.1c-0.5-0.1-1-0.1-1.5-0.1H529.7L529.7,555.4z M529.8,554h3.6
		c1.9,0,3.4-0.5,4.4-1.4c1.2-1.1,1.8-2.8,1.8-4.9c0-2-0.5-3.5-1.5-4.5c-1-1-2.5-1.5-4.5-1.5h-3.8V554L529.8,554z"/>
	<path d="M88.3,490.4v8.5h-1c-0.5-1.6-1-2.9-1.6-3.9c-0.7-1-1.5-1.8-2.6-2.4c-1.1-0.6-2.3-0.9-3.6-0.9c-2.1,0-3.9,0.7-5.2,2.1
		c-2,2.1-3,5.9-3,11.2c0,9.1,2.7,13.6,8.2,13.6c1.8,0,3.7-0.5,5.8-1.6v-7.2c0-0.6-0.1-1-0.2-1.2c-0.3-0.5-1.3-0.8-3.1-0.9v-1
		c2,0.2,3.6,0.3,4.9,0.3c1.3,0,2.9-0.1,4.9-0.3v1c-1.2,0.1-2,0.2-2.4,0.5c-0.3,0.2-0.5,0.5-0.6,0.8c0,0.1,0,0.4,0,0.9v7
		c-3.3,2-6.5,3.1-9.6,3.1c-2.4,0-4.5-0.7-6.4-2c-1.9-1.4-3.3-3.4-4.2-6.1c-0.7-2-1-4.2-1-6.8c0-4.4,1-7.9,3.1-10.5
		c2.1-2.7,5-4.1,8.6-4.1c2.5,0,4.8,0.8,6.8,2.4l1.7-2.5H88.3L88.3,490.4z"/>
	<path d="M133,507l-6.4-12.6c-0.5-1.1-1.1-1.8-1.8-2.1c-0.5-0.2-1.2-0.4-2.2-0.5v-1c1.9,0.2,3.7,0.3,5.3,0.3c1.6,0,3.3-0.1,5.2-0.3
		v1c-0.7,0-1.3,0.1-1.8,0.2c-0.8,0.1-1.2,0.5-1.2,1c0,0.3,0.1,0.7,0.4,1.3l5.5,10.9l5.5-10.9c0.3-0.5,0.4-1,0.4-1.3
		c0-0.5-0.4-0.8-1.1-1c-0.4-0.1-1-0.1-1.8-0.2v-1c1.6,0.1,2.9,0.2,4,0.2c1.1,0,2.4-0.1,4-0.2v1c-1,0.1-1.7,0.3-2.2,0.4
		c-0.6,0.3-1.2,0.9-1.7,1.9l-6.4,12.9v8.7c0,0.9,0.1,1.5,0.2,1.8c0.4,0.6,1.5,0.9,3.3,1v1c-2.3-0.2-4.1-0.3-5.4-0.3
		c-1.3,0-3.1,0.1-5.4,0.3v-1c1.2-0.1,2-0.2,2.5-0.4c0.6-0.3,0.9-0.7,1-1.2c0-0.2,0.1-0.6,0.1-1.2V507L133,507z"/>
	<path d="M184.2,493.5l-0.9,22.2c0,0.2,0,0.3,0,0.4c0,0.6,0.1,1.1,0.3,1.4c0.3,0.6,1.4,0.9,3.3,1.1v1c-1.8-0.1-3.2-0.2-4.2-0.2
		c-1,0-2.4,0.1-4.3,0.2v-1c1.2-0.1,2.1-0.2,2.5-0.4c0.5-0.2,0.8-0.6,0.9-1.2c0.1-0.3,0.1-0.7,0.1-1.2l0.9-21c0,0,0-0.1,0-0.1
		c0-0.8-0.1-1.3-0.3-1.6c-0.3-0.6-1.4-1-3.3-1.1v-1c1.4,0.1,2.5,0.2,3.5,0.2c1.3,0,2.7-0.1,4.1-0.2l7.9,21.7l8.1-21.7
		c1.7,0.2,3,0.2,4.1,0.2c0.9,0,2-0.1,3.3-0.2v1c-1.1,0.1-2,0.2-2.5,0.4c-0.7,0.3-1,1-1,2.1c0,0.1,0,0.2,0,0.4l0.4,21
		c0,0.9,0.1,1.5,0.3,1.8c0.4,0.6,1.5,1,3.3,1.1v1c-2.2-0.2-4-0.3-5.4-0.3c-1.3,0-3.1,0.1-5.3,0.3v-1c1.1-0.1,1.9-0.2,2.5-0.4
		c0.6-0.2,0.9-0.6,1-1.2c0-0.2,0.1-0.6,0.1-1c0,0,0-0.1,0-0.2l-0.4-22.2l-7.1,19.1c-0.2,0.5-0.5,1.5-1.1,3l-0.6,1.6l-0.5,1.4h-0.6
		l-0.5-1.4l-0.6-1.7l-0.6-1.7l-0.5-1.5L184.2,493.5L184.2,493.5z"/>
	<path d="M265.7,520.3h-0.6c-1.2-1.9-2.3-3.7-3.4-5.2l-1-1.6l-12.6-19v21.2c0,0.9,0.1,1.5,0.2,1.8c0.4,0.6,1.5,0.9,3.3,1v1
		c-2-0.1-3.5-0.2-4.3-0.2c-0.9,0-2.3,0.1-4.2,0.2v-1c1.2-0.1,2-0.2,2.5-0.4c0.6-0.3,0.9-0.7,1-1.2c0-0.2,0.1-0.6,0.1-1.2v-22.6
		c-0.4-0.5-0.9-0.8-1.5-1c-0.5-0.2-1.2-0.3-2-0.3v-1c1.3,0.1,2.5,0.1,3.6,0.1c1.1,0,2.1,0,3.1-0.1l14.5,21.7v-17.8
		c0-0.9-0.1-1.5-0.2-1.8c-0.4-0.6-1.5-0.9-3.3-1v-1c1.9,0.1,3.4,0.2,4.3,0.2c1,0,2.4-0.1,4.2-0.2v1c-1.1,0.1-2,0.2-2.5,0.4
		c-0.6,0.3-0.9,0.7-1,1.2c0,0.2-0.1,0.6-0.1,1.2V520.3L265.7,520.3z"/>
	<path fill-rule="evenodd" clip-rule="evenodd" d="M317.7,511.2h-9.9l-1.4,4c-0.3,1-0.5,1.6-0.5,2c0,0.6,0.4,1,1.1,1.1
		c0.4,0.1,0.9,0.1,1.7,0.2v1c-1.6-0.2-3-0.2-4.1-0.2c-1.1,0-2.4,0.1-4.1,0.2v-1c1.3-0.1,2.1-0.3,2.6-0.6c0.5-0.4,1-1.2,1.5-2.4
		l9.8-25.5l8.8,26c0.4,1.2,1,1.9,1.7,2.1c0.5,0.2,1.3,0.3,2.3,0.4v1c-2-0.2-3.7-0.3-5.2-0.3c-1.5,0-3.3,0.1-5.2,0.3v-1
		c0.8-0.1,1.4-0.1,1.8-0.3c0.6-0.2,1-0.5,1-1c0-0.4-0.1-0.9-0.3-1.4L317.7,511.2L317.7,511.2z M308.3,509.9h9l-4.2-13.1L308.3,509.9
		L308.3,509.9z"/>
	<path d="M359.7,510.9h1c0.8,5.1,3.4,7.7,7.5,7.7c1.8,0,3.3-0.6,4.4-1.7c1-1.1,1.5-2.4,1.5-4c0-1.7-0.6-3.1-1.9-4
		c-0.6-0.5-2-1.3-4.1-2.3c-3.2-1.6-5.2-2.8-6-3.6c-1.3-1.2-2-2.8-2-4.8c0-2.3,0.8-4.1,2.3-5.5c1.5-1.3,3.4-2,5.8-2
		c2.2,0,4,0.7,5.6,2.2l1.3-2.4h0.8v7.9h-1c-0.3-1.5-0.8-2.8-1.4-3.7c-1.1-1.8-2.7-2.7-4.9-2.7c-1.6,0-2.9,0.5-3.9,1.6
		c-1,1-1.5,2.2-1.5,3.6c0,1.6,0.8,2.9,2.4,3.9c0.7,0.4,2.1,1.2,4.2,2.2c2.3,1.2,3.9,2.1,4.9,2.8c1.7,1.3,2.6,3.2,2.6,5.6
		c0,2.4-0.8,4.4-2.5,6c-1.6,1.5-3.6,2.2-6.1,2.2c-2.5,0-4.8-0.8-6.8-2.5l-1.5,2.7h-0.8V510.9L359.7,510.9z"/>
	<path d="M413.9,515.7v-21c0-0.9-0.1-1.5-0.3-1.8c-0.3-0.5-0.8-0.8-1.8-0.9c-0.4-0.1-0.9-0.1-1.5-0.1v-1c2.2,0.2,4,0.3,5.4,0.3
		c1.4,0,3.2-0.1,5.4-0.3v1c-1.2,0.1-2,0.2-2.5,0.4c-0.6,0.3-0.9,0.7-1,1.2c0,0.2-0.1,0.6-0.1,1.2v21c0,0.9,0.1,1.5,0.3,1.8
		c0.3,0.5,0.8,0.8,1.8,0.9c0.3,0,0.8,0.1,1.5,0.1v1c-2.3-0.2-4.1-0.3-5.4-0.3c-1.3,0-3.1,0.1-5.4,0.3v-1c1.2-0.1,2-0.2,2.5-0.4
		c0.6-0.3,0.9-0.7,1-1.2C413.9,516.7,413.9,516.3,413.9,515.7L413.9,515.7z"/>
	<path d="M475.8,494.7v15.7c0,1.8-0.2,3.2-0.5,4.1c-0.7,1.9-1.8,3.3-3.6,4.2c-1.5,0.8-3.4,1.3-5.5,1.3c-3.2,0-5.7-1-7.5-2.9
		c-1-1-1.6-2.2-1.8-3.6c-0.1-0.8-0.2-1.7-0.2-2.8v-16c0-0.9-0.1-1.5-0.3-1.8c-0.3-0.5-0.8-0.8-1.8-0.9c-0.4-0.1-0.9-0.1-1.5-0.1v-1
		c2.2,0.2,4,0.3,5.4,0.3c1.4,0,3.2-0.1,5.4-0.3v1c-1.2,0.1-2,0.2-2.5,0.4c-0.6,0.3-0.9,0.7-1,1.2c0,0.2-0.1,0.6-0.1,1.2v16.3
		c0,1.7,0.2,2.9,0.5,3.7c0.5,1.2,1.4,2.1,2.7,2.6c1,0.4,2.2,0.7,3.5,0.7c1.4,0,2.7-0.2,3.8-0.7c1.1-0.5,2-1.2,2.5-2.1
		c0.7-1.1,1-2.6,1-4.7v-15.9c0-0.9-0.1-1.5-0.3-1.8c-0.3-0.5-0.8-0.8-1.8-0.9c-0.4-0.1-0.9-0.1-1.5-0.1v-1c2,0.1,3.4,0.2,4.3,0.2
		c1,0,2.4-0.1,4.2-0.2v1c-1.2,0.1-2,0.2-2.5,0.4c-0.6,0.3-0.9,0.7-1,1.2C475.8,493.7,475.8,494.1,475.8,494.7L475.8,494.7z"/>
	<path d="M517.3,493.5l-0.9,22.2c0,0.2,0,0.3,0,0.4c0,0.6,0.1,1.1,0.3,1.4c0.3,0.6,1.4,0.9,3.3,1.1v1c-1.8-0.1-3.2-0.2-4.2-0.2
		c-1,0-2.4,0.1-4.3,0.2v-1c1.2-0.1,2.1-0.2,2.5-0.4c0.5-0.2,0.8-0.6,0.9-1.2c0.1-0.3,0.1-0.7,0.1-1.2l0.9-21c0,0,0-0.1,0-0.1
		c0-0.8-0.1-1.3-0.3-1.6c-0.3-0.6-1.4-1-3.3-1.1v-1c1.4,0.1,2.5,0.2,3.5,0.2c1.3,0,2.7-0.1,4.1-0.2l7.9,21.7l8.1-21.7
		c1.7,0.2,3,0.2,4.1,0.2c0.9,0,2-0.1,3.3-0.2v1c-1.1,0.1-2,0.2-2.5,0.4c-0.7,0.3-1,1-1,2.1c0,0.1,0,0.2,0,0.4l0.4,21
		c0,0.9,0.1,1.5,0.3,1.8c0.4,0.6,1.5,1,3.3,1.1v1c-2.2-0.2-4-0.3-5.4-0.3c-1.3,0-3.1,0.1-5.3,0.3v-1c1.1-0.1,1.9-0.2,2.5-0.4
		c0.6-0.2,0.9-0.6,1-1.2c0-0.2,0.1-0.6,0.1-1c0,0,0-0.1,0-0.2l-0.4-22.2l-7.1,19.1c-0.2,0.5-0.5,1.5-1.1,3l-0.6,1.6l-0.5,1.4h-0.6
		l-0.5-1.4l-0.6-1.7l-0.6-1.7l-0.5-1.5L517.3,493.5L517.3,493.5z"/>
	<path stroke="#000000" stroke-width="0.3844" stroke-miterlimit="3.8637" d="M291.1,328.6c0.1-1.4,2.4-2.3,5.1-2
		c2.7,0.3,4.7,1.7,4.6,3.1c-0.1,1.4-2.4,2.3-5.1,2C293.1,331.4,291,330,291.1,328.6L291.1,328.6z"/>
	<path fill="none" stroke="#FFFFFF" stroke-width="0.4488" stroke-miterlimit="3.8637" d="M290.9,328.4l10.3,0.8 M296.1,325.9l0,6
		 M293.5,326.2l0,5.2 M298.7,326.4v5.6"/>
	<polygon stroke="#000000" stroke-width="0.3844" stroke-miterlimit="3.8637" points="292.5,358.9 298.9,359.2 298.9,366.1 
		292.5,365.8 292.5,358.9 	"/>
	<path stroke="#000000" stroke-width="0.3844" stroke-miterlimit="3.8637" d="M392.1,336.1c0.1-1.2,2.2-2,4.5-1.8
		c2.4,0.3,4.2,1.5,4.1,2.7c-0.1,1.2-2.2,2-4.5,1.8C393.8,338.6,392,337.4,392.1,336.1L392.1,336.1z"/>
	<path fill="none" stroke="#FFFFFF" stroke-width="0.4019" stroke-miterlimit="3.8637" d="M392,335.7l9.6,0.8 M396.7,333.7l0,5.4
		 M394.4,333.9l0,4.8 M399.1,334.1v4.9"/>
	<path stroke="#000000" stroke-width="0.3844" stroke-miterlimit="3.8637" d="M316.4,433.3l14.4,0.2c0,0,0.1-7.9,0.1-9.7
		c0-1.8-0.7-8.1-6.9-8.3c-5.2-0.2-7.6,5.4-7.6,8.1C316.4,426.4,316.4,433.3,316.4,433.3L316.4,433.3z"/>
	<path stroke="#000000" stroke-width="0.3844" stroke-miterlimit="3.8637" d="M340.2,433.5l14.3,0.1c0,0,0.1-7.9,0.1-9.7
		c0-1.8-0.7-7.8-6.9-8c-5.2-0.2-7.6,5.1-7.6,7.8C340.1,426.5,340.2,433.5,340.2,433.5L340.2,433.5z"/>
	<path stroke="#000000" stroke-width="0.3844" stroke-miterlimit="3.8637" d="M365.4,434.1l14.4,0.2c0,0,0.1-7.5,0.1-9.3
		c0-1.8-0.9-8-7-8.2c-5.2-0.2-7.6,4.9-7.6,7.6C365.3,427.2,365.4,434.1,365.4,434.1L365.4,434.1z"/>
	<line fill="none" stroke="#000000" stroke-width="0.7638" stroke-miterlimit="3.8637" x1="387.3" y1="437.4" x2="406" y2="437.7"/>
	<path fill="none" stroke="#000000" stroke-width="0.4488" stroke-miterlimit="3.8637" d="M425.6,370.7l0,40.1 M430.2,371l-0.1,39.9
		 M410.7,369.8l-0.1,40.4 M446.2,371.9l0,39.5 M450.2,372.2l0,39.3 M516.6,372.6l0,39.1 M520.9,373.9l-0.1,37.9"/>
	<polygon stroke="#000000" stroke-width="0.3844" stroke-miterlimit="3.8637" points="501.7,388.6 501.7,371.7 496.9,371.5 
		496.9,388.3 501.7,388.6 	"/>
	<polygon stroke="#000000" stroke-width="0.3844" stroke-miterlimit="3.8637" points="508.1,388.9 508,372.2 503.2,371.8 
		503.2,388.7 508.1,388.9 	"/>
	<polygon stroke="#000000" stroke-width="0.3844" stroke-miterlimit="3.8637" points="514.7,389.2 514.7,372.6 509.8,372.3 
		509.8,389 514.7,389.2 	"/>
	<polygon stroke="#000000" stroke-width="0.3652" stroke-miterlimit="3.8637" points="527.8,389.9 527.8,373.3 523.2,373 
		523.2,389.7 527.8,389.9 	"/>
	<polygon stroke="#000000" stroke-width="0.3652" stroke-miterlimit="3.8637" points="533.9,390.2 533.9,373.7 529.2,373.4 
		529.2,390 533.9,390.2 	"/>
	<polygon stroke="#000000" stroke-width="0.3652" stroke-miterlimit="3.8637" points="540.1,390.5 540.1,374.1 535.5,373.8 
		535.5,390.2 540.1,390.5 	"/>
	<polygon stroke="#000000" stroke-width="0.3844" stroke-miterlimit="3.8637" points="501.7,411.3 501.7,394.7 496.9,394.4 
		496.9,411.1 501.7,411.3 	"/>
	<polygon stroke="#000000" stroke-width="0.3844" stroke-miterlimit="3.8637" points="508,411.5 508,395 503.4,394.7 503.2,411.3 
		508,411.5 	"/>
	<polygon stroke="#000000" stroke-width="0.3844" stroke-miterlimit="3.8637" points="514.7,411.7 514.7,395.2 509.8,395 
		509.8,411.5 514.7,411.7 	"/>
	<polygon stroke="#000000" stroke-width="0.3652" stroke-miterlimit="3.8637" points="527.8,412.1 527.8,395.9 523.2,395.6 
		523.2,411.9 527.8,412.1 	"/>
	<polygon stroke="#000000" stroke-width="0.3652" stroke-miterlimit="3.8637" points="534.1,412.1 533.9,396.2 529.4,395.9 
		529.2,412.1 534.1,412.1 	"/>
	<polygon stroke="#000000" stroke-width="0.3652" stroke-miterlimit="3.8637" points="540.1,412.5 540.1,396.4 535.5,396.2 
		535.5,412.3 540.1,412.5 	"/>
	<path fill="none" stroke="#000000" stroke-width="0.4488" stroke-miterlimit="3.8637" d="M516.6,372.6l-0.2,65.3 M520.9,373
		l-0.1,64.6"/>
	<polygon stroke="#000000" stroke-width="0.3932" stroke-miterlimit="3.8637" points="420.3,387.7 420.3,370.5 415.3,370.2 
		415.3,387.5 420.3,387.7 	"/>
	<polygon stroke="#000000" stroke-width="0.3932" stroke-miterlimit="3.8637" points="420.3,410.5 420.3,393 415.3,392.8 
		415.3,410.3 420.3,410.5 	"/>
	<polygon stroke="#000000" stroke-width="0.3932" stroke-miterlimit="3.8637" points="440.3,388.6 440.3,371.6 435.3,371.3 
		435.3,388.4 440.3,388.6 	"/>
	<polygon stroke="#000000" stroke-width="0.3932" stroke-miterlimit="3.8637" points="440.3,411.2 440.3,393.8 435.3,393.5 
		435.3,411 440.3,411.2 	"/>
	<polygon stroke="#000000" stroke-width="0.3932" stroke-miterlimit="3.8637" points="459.8,389.6 459.8,372.9 454.7,372.5 
		454.7,389.3 459.8,389.6 	"/>
	<polygon stroke="#000000" stroke-width="0.3932" stroke-miterlimit="3.8637" points="459.8,411.8 459.8,394.6 454.7,394.4 
		454.8,411.6 459.8,411.8 	"/>
	<path stroke="#000000" stroke-width="0.7638" stroke-miterlimit="3.8637" d="M262.5,316.4c0.1-1.4,2.4-2.3,5.1-2
		c2.7,0.3,4.7,1.7,4.6,3.1c-0.1,1.4-2.4,2.3-5.1,2C264.4,319.2,262.3,317.8,262.5,316.4L262.5,316.4z"/>
	<path fill="none" stroke="#FFFFFF" stroke-width="0.4488" stroke-miterlimit="3.8637" d="M262.1,316.1l11.7,1 M268.1,313.8l0,6.1
		 M265.5,313.4l0,6.2 M270.7,313.9l0,5.9"/>
	<path stroke="#000000" stroke-width="0.7638" stroke-miterlimit="3.8637" d="M242.2,315.2c-0.1-1.4-2.4-2.3-5.1-2
		c-2.7,0.3-4.7,1.7-4.6,3.1c0.1,1.4,2.4,2.3,5.1,2C240.3,317.9,242.4,316.6,242.2,315.2L242.2,315.2z"/>
	<path fill="none" stroke="#FFFFFF" stroke-width="0.4488" stroke-miterlimit="3.8637" d="M243.6,314.8l-11.4,1.1 M237.8,312.2v6.5
		 M240.5,312.3l0,5.9 M235.2,312.8l0,5.7"/>
	<path stroke="#000000" stroke-width="0.7638" stroke-miterlimit="3.8637" d="M202.8,319c-0.1-1.4-2.4-2.3-5.1-2
		c-2.7,0.3-4.7,1.7-4.6,3.1c0.1,1.4,2.4,2.3,5.1,2C200.9,321.7,202.9,320.4,202.8,319L202.8,319z"/>
	<path fill="none" stroke="#FFFFFF" stroke-width="0.4488" stroke-miterlimit="3.8637" d="M203.9,318.6l-11.1,0.9 M198.3,316
		l0.1,6.4 M200.9,316.1l0,5.8 M195.7,316.5l0.1,5.7"/>
	<polygon stroke="#000000" stroke-width="0.3932" stroke-miterlimit="3.8637" points="420.2,436.8 420.3,420 415.3,419.9 
		415.3,436.7 420.2,436.8 	"/>
	<polygon stroke="#000000" stroke-width="0.3932" stroke-miterlimit="3.8637" points="440.3,437.1 440.3,420.5 435.3,420.4 
		435.3,437.1 440.3,437.1 	"/>
	<polygon stroke="#000000" stroke-width="0.3932" stroke-miterlimit="3.8637" points="459.8,438.7 459.8,421.1 454.7,420.9 
		454.8,438.6 459.8,438.7 	"/>
	<polygon fill="#DADADA" stroke="#000000" stroke-width="0.7638" stroke-miterlimit="3.8637" points="406.3,459 543.3,459.1 
		543.3,452.8 524,452.8 524,438.5 520.1,436.4 515.7,438.3 515.7,452.7 492.7,452.6 492.7,437.9 488.8,435.8 484.8,437.7 
		484.8,452.6 461.8,452.4 461.7,437.4 457.7,435.2 453.5,437.3 453.6,452.4 430.9,452.3 430.8,437 426,435.1 421.3,437 421.4,452.1 
		406.3,452.1 406.3,459 	"/>
	<path stroke="#000000" stroke-width="0.3844" stroke-miterlimit="3.8637" d="M333.6,361.5c0.4,0,0.4,0.7,0.4,1.4
		c0,0.7-0.2,1.5-0.2,2c0,0.3,0.1,0.7,0.1,1.2c0,0.4,0,0.9-0.3,0.9c-0.3,0-0.3-0.4-0.3-0.9c0-0.5,0.2-0.8,0.2-1.3
		c0-0.5-0.3-1.1-0.3-2C333.3,362.3,333.3,361.4,333.6,361.5L333.6,361.5z"/>
	<polygon fill="none" stroke="#000000" stroke-width="0.3891" stroke-miterlimit="3.8637" points="394,365.2 399.7,365.4 
		399.7,371.4 394,371.1 394,365.2 	"/>
	<polygon fill="#FFFFFF" stroke="#000000" stroke-width="0.7638" stroke-miterlimit="3.8637" points="62.6,367.8 69.2,371.5 
		113.1,369.2 146.3,371.1 188.1,369 187.8,364.1 146,366.7 112.8,364.8 62.6,367.8 	"/>
	<polygon fill="#FFFFFF" stroke="#000000" stroke-width="0.7638" stroke-miterlimit="3.8637" points="415.4,314.4 287.4,302.4 
		282.6,304.8 251.4,301.3 182.3,308.8 185.7,311.4 251.4,305.3 282.6,308.8 287.4,306.9 309.2,308.8 412.4,318.3 415.3,315.8 
		415.4,314.4 	"/>
	<polygon fill="#FFFFFF" stroke="#000000" stroke-width="0.7638" stroke-miterlimit="3.8637" points="406.4,360 464.9,363.8 
		495.8,360.6 549.6,364.4 544,368 495.3,365 465.5,368.4 406.3,364.5 406.4,360 	"/>
	<polygon fill="#FFFFFF" stroke="#000000" stroke-width="0.7638" stroke-miterlimit="3.8637" points="187.8,411.4 146.1,411.4 
		113.1,410.7 70,413.1 69.9,420.5 113.2,418.7 146.1,419.3 187.8,419.6 187.8,411.4 	"/>
	<polygon fill="#FFFFFF" stroke="#000000" stroke-width="0.7638" stroke-miterlimit="3.8637" points="196.5,331.6 188,332.4 
		188,340.6 196.5,340.1 196.5,331.6 	"/>
	<path fill="#FFFFFF" stroke="#000000" stroke-width="0.7638" stroke-miterlimit="3.8637" d="M314.2,397.2l0-73.8l-0.8-0.1l0-1.7
		c0,0,0.7,0,1.8-0.4c2.7-1,3.2-5.9,9.7-5.6c7.5,0.4,8.4,6.4,10.4,7.4c0.8,0.4,2,0.6,2,0.6l0,1.7l-1.1-0.1L336,398L314.2,397.2
		L314.2,397.2z"/>
	<path stroke="#000000" stroke-width="0.3844" stroke-miterlimit="3.8637" d="M328.2,358.2l-6.3-0.4c0,0,0-25.5,0-27.5
		c0-1.6,1.8-2.7,3.2-2.6c1.4,0.1,3,1.3,3,3.1C328.2,332.9,328.2,358.2,328.2,358.2L328.2,358.2z"/>
	<path stroke="#000000" stroke-width="0.3844" stroke-miterlimit="3.8637" d="M320.4,357.7l-4.7-0.3c0,0,0.1-26.1,0-27.6
		c-0.1-1.6,1-2.8,2.5-2.7c1.4,0.1,2.2,1.3,2.2,3C320.3,331.8,320.4,357.7,320.4,357.7L320.4,357.7z"/>
	<path stroke="#000000" stroke-width="0.3844" stroke-miterlimit="3.8637" d="M334.6,358.6l-4.7-0.3c0,0,0.1-25.9,0-27.5
		c-0.1-1.6,1-2.8,2.4-2.7c1.4,0.1,2.3,1.2,2.3,2.9C334.6,332.8,334.6,358.6,334.6,358.6L334.6,358.6z"/>
	<polygon stroke="#000000" stroke-width="0.3844" stroke-miterlimit="3.8637" points="328.2,395.9 321.8,395.7 321.9,370.6 
		328.2,370.9 328.2,395.9 	"/>
	<polygon stroke="#000000" stroke-width="0.3844" stroke-miterlimit="3.8637" points="320.3,395.7 315.6,395.6 315.6,370.2 
		320.3,370.5 320.3,395.7 	"/>
	<polygon stroke="#000000" stroke-width="0.3844" stroke-miterlimit="3.8637" points="334.6,396.1 329.9,396 329.9,371 334.6,371.3 
		334.6,396.1 	"/>
	<polygon stroke="#000000" stroke-width="0.3844" stroke-miterlimit="3.8637" points="298.9,435.1 292.5,435.1 292.4,410.3 
		298.9,410.3 298.9,435.1 	"/>
	<polygon stroke="#000000" stroke-width="0.3844" stroke-miterlimit="3.8637" points="400,436.3 393.5,436.2 393.6,412.5 
		400.2,412.7 400,436.3 	"/>
	<polygon stroke="#000000" stroke-width="0.3652" stroke-miterlimit="3.8637" points="527.7,437.3 527.8,421 523.2,420.9 
		523.2,437.1 527.7,437.3 	"/>
	<polygon stroke="#000000" stroke-width="0.3652" stroke-miterlimit="3.8637" points="533.9,437.4 533.9,421.2 529.2,421.1 
		529.3,437.3 533.9,437.4 	"/>
	<polygon stroke="#000000" stroke-width="0.3652" stroke-miterlimit="3.8637" points="540.1,437.6 540.1,421.4 535.5,421.3 
		535.5,437.4 540.1,437.6 	"/>
	<polygon stroke="#000000" stroke-width="0.3844" stroke-miterlimit="3.8637" points="508,436.9 508,420.5 503.2,420.4 503.3,436.8 
		508,436.9 	"/>
	<polygon stroke="#000000" stroke-width="0.3844" stroke-miterlimit="3.8637" points="514.4,437 514.5,420.7 509.8,420.6 
		509.8,436.8 514.4,437 	"/>
	<polygon stroke="#000000" stroke-width="0.3844" stroke-miterlimit="3.8637" points="501.7,436.7 501.6,420.4 496.9,420.2 
		496.9,436.6 501.7,436.7 	"/>
	<path fill="none" stroke="#000000" stroke-width="0.7638" stroke-miterlimit="3.8637" d="M208.7,344.4v48.4 M210.5,344.3v48.4
		 M225.1,343.3V392 M227.1,343.1v48.8"/>
	<polygon stroke="#000000" stroke-width="0.3844" stroke-miterlimit="3.8637" points="199.5,345.1 202.1,344.9 202.1,363.5 
		199.5,363.6 199.5,345.1 	"/>
	<polygon stroke="#000000" stroke-width="0.3844" stroke-miterlimit="3.8637" points="212,344.2 214.5,344 214.5,362.7 212,362.9 
		212,344.2 	"/>
	<polygon stroke="#000000" stroke-width="0.3844" stroke-miterlimit="3.8637" points="216.4,343.9 219,343.7 219,362.5 216.4,362.6 
		216.4,343.9 	"/>
	<polygon stroke="#000000" stroke-width="0.3844" stroke-miterlimit="3.8637" points="220.9,343.6 223.5,343.4 223.5,362.2 
		220.9,362.4 220.9,343.6 	"/>
	<polygon stroke="#000000" stroke-width="0.3844" stroke-miterlimit="3.8637" points="229.6,342.9 232.1,342.7 232.1,361.7 
		229.6,361.9 229.6,342.9 	"/>
	<polygon stroke="#000000" stroke-width="0.3844" stroke-miterlimit="3.8637" points="234.1,342.6 236.6,342.4 236.6,361.4 
		234.1,361.6 234.1,342.6 	"/>
	<polygon stroke="#000000" stroke-width="0.3844" stroke-miterlimit="3.8637" points="203.9,344.8 206.5,344.6 206.5,363.2 
		203.9,363.4 203.9,344.8 	"/>
	<polygon stroke="#000000" stroke-width="0.3844" stroke-miterlimit="3.8637" points="199.6,371.4 202.1,371.2 202.1,392.9 
		199.5,393 199.6,371.4 	"/>
	<polygon stroke="#000000" stroke-width="0.3844" stroke-miterlimit="3.8637" points="203.9,371.1 206.5,371 206.5,392.7 
		203.9,392.8 203.9,371.1 	"/>
	<polygon stroke="#000000" stroke-width="0.3844" stroke-miterlimit="3.8637" points="229.7,369.7 232.1,369.5 232.1,391.7 
		229.6,391.8 229.7,369.7 	"/>
	<polygon stroke="#000000" stroke-width="0.3844" stroke-miterlimit="3.8637" points="234.1,369.5 236.6,369.3 236.6,391.5 
		234.1,391.6 234.1,369.5 	"/>
	<polygon stroke="#000000" stroke-width="0.3844" stroke-miterlimit="3.8637" points="212,370.7 214.5,370.6 214.5,392.4 212,392.5 
		212,370.7 	"/>
	<polygon stroke="#000000" stroke-width="0.3844" stroke-miterlimit="3.8637" points="216.4,370.4 219,370.3 219,392.2 216.4,392.4 
		216.4,370.4 	"/>
	<polygon stroke="#000000" stroke-width="0.3844" stroke-miterlimit="3.8637" points="220.9,370.2 223.5,370.1 223.5,392 
		220.9,392.1 220.9,370.2 	"/>
	<polygon stroke="#000000" stroke-width="0.3844" stroke-miterlimit="3.8637" points="199.5,411.4 202.1,411.3 202.1,433.1 
		199.5,433.1 199.5,411.4 	"/>
	<polygon stroke="#000000" stroke-width="0.3844" stroke-miterlimit="3.8637" points="203.9,411.3 206.5,411.2 206.5,433 
		203.9,433.1 203.9,411.3 	"/>
	<polygon stroke="#000000" stroke-width="0.3844" stroke-miterlimit="3.8637" points="229.6,410.5 232.1,410.4 232.1,432.5 
		229.6,432.6 229.6,410.5 	"/>
	<polygon stroke="#000000" stroke-width="0.3844" stroke-miterlimit="3.8637" points="234.1,410.3 236.6,410.3 236.6,432.5 
		234.1,432.6 234.1,410.3 	"/>
	<polygon stroke="#000000" stroke-width="0.3844" stroke-miterlimit="3.8637" points="212,411 214.5,410.9 214.5,432.9 212,432.9 
		212,411 	"/>
	<polygon stroke="#000000" stroke-width="0.3844" stroke-miterlimit="3.8637" points="216.4,410.9 219,410.8 219,432.8 216.4,432.9 
		216.4,410.9 	"/>
	<polygon stroke="#000000" stroke-width="0.3844" stroke-miterlimit="3.8637" points="220.9,410.7 223.5,410.7 223.5,432.8 
		220.9,432.8 220.9,410.7 	"/>
	<path fill="none" stroke="#000000" stroke-width="0.4684" stroke-miterlimit="3.8637" d="M76.7,376l0,32.9 M77.7,376l0,32.9
		 M86.3,375.4l0,33.1 M87.5,375.3l0,33.2"/>
	<polygon stroke="#000000" stroke-width="0.2461" stroke-miterlimit="3.8637" points="71.6,376.3 73.1,376.2 73.1,389.5 71.6,389.6 
		71.6,376.3 	"/>
	<polygon stroke="#000000" stroke-width="0.2461" stroke-miterlimit="3.8637" points="78.7,375.9 80.1,375.8 80.1,389.2 78.8,389.2 
		78.7,375.9 	"/>
	<polygon stroke="#000000" stroke-width="0.2461" stroke-miterlimit="3.8637" points="81.2,375.7 82.6,375.6 82.6,389.1 81.2,389.1 
		81.2,375.7 	"/>
	<polygon stroke="#000000" stroke-width="0.2461" stroke-miterlimit="3.8637" points="83.7,375.6 85.2,375.5 85.2,388.9 83.7,389 
		83.7,375.6 	"/>
	<polygon stroke="#000000" stroke-width="0.2461" stroke-miterlimit="3.8637" points="88.7,375.3 90.1,375.2 90.1,388.7 88.7,388.7 
		88.7,375.3 	"/>
	<polygon stroke="#000000" stroke-width="0.2461" stroke-miterlimit="3.8637" points="91.2,375.2 92.6,375.1 92.6,388.5 91.3,388.6 
		91.2,375.2 	"/>
	<polygon stroke="#000000" stroke-width="0.2461" stroke-miterlimit="3.8637" points="74.1,376.1 75.7,376 75.7,389.4 74.1,389.5 
		74.1,376.1 	"/>
	<polygon stroke="#000000" stroke-width="0.2461" stroke-miterlimit="3.8637" points="71.6,394 73.1,394 73.1,409.1 71.6,409.1 
		71.6,394 	"/>
	<polygon stroke="#000000" stroke-width="0.2461" stroke-miterlimit="3.8637" points="74.1,394 75.7,393.9 75.7,409 74.1,409 
		74.1,394 	"/>
	<polygon stroke="#000000" stroke-width="0.2461" stroke-miterlimit="3.8637" points="88.7,393.3 90.1,393.2 90.1,408.5 88.7,408.5 
		88.7,393.3 	"/>
	<polygon stroke="#000000" stroke-width="0.2461" stroke-miterlimit="3.8637" points="91.2,393.2 92.6,393.1 92.6,408.4 91.2,408.4 
		91.2,393.2 	"/>
	<polygon stroke="#000000" stroke-width="0.2461" stroke-miterlimit="3.8637" points="78.7,393.7 80.1,393.7 80.1,408.8 78.7,408.9 
		78.7,393.7 	"/>
	<polygon stroke="#000000" stroke-width="0.2461" stroke-miterlimit="3.8637" points="81.2,393.6 82.6,393.5 82.6,408.7 81.2,408.8 
		81.2,393.6 	"/>
	<polygon stroke="#000000" stroke-width="0.2461" stroke-miterlimit="3.8637" points="83.7,393.5 85.2,393.4 85.2,408.7 83.7,408.7 
		83.7,393.5 	"/>
	<polygon stroke="#000000" stroke-width="0.2461" stroke-miterlimit="3.8637" points="71.6,421.6 73.1,421.5 73.1,435.3 71.6,435.3 
		71.6,421.6 	"/>
	<polygon stroke="#000000" stroke-width="0.2461" stroke-miterlimit="3.8637" points="74.1,421.5 75.7,421.5 75.7,435.3 74.1,435.3 
		74.1,421.5 	"/>
	<polygon stroke="#000000" stroke-width="0.2461" stroke-miterlimit="3.8637" points="88.7,421.1 90.1,421.1 90.1,435 88.7,435 
		88.7,421.1 	"/>
	<polygon stroke="#000000" stroke-width="0.2461" stroke-miterlimit="3.8637" points="91.2,421 92.6,421 92.6,434.9 91.2,435 
		91.2,421 	"/>
	<polygon stroke="#000000" stroke-width="0.2461" stroke-miterlimit="3.8637" points="78.7,421.4 80.1,421.4 80.1,435.2 78.7,435.2 
		78.7,421.4 	"/>
	<polygon stroke="#000000" stroke-width="0.2461" stroke-miterlimit="3.8637" points="81.2,421.3 82.6,421.3 82.6,435.1 81.2,435.1 
		81.2,421.3 	"/>
	<polygon stroke="#000000" stroke-width="0.2461" stroke-miterlimit="3.8637" points="83.7,421.2 85.2,421.2 85.2,435 83.7,435.1 
		83.7,421.2 	"/>
	<polygon stroke="#000000" stroke-width="0.2518" stroke-miterlimit="3.8637" points="99.1,374.6 100.5,374.6 100.5,383.6 
		99.1,383.7 99.1,374.6 	"/>
	<polygon stroke="#000000" stroke-width="0.2518" stroke-miterlimit="3.8637" points="101.6,374.5 103,374.5 103,383.5 101.6,383.5 
		101.6,374.5 	"/>
	<polygon stroke="#000000" stroke-width="0.2518" stroke-miterlimit="3.8637" points="99.1,392.7 100.5,392.7 100.5,408.1 
		99.1,408.1 99.1,392.7 	"/>
	<polygon stroke="#000000" stroke-width="0.2518" stroke-miterlimit="3.8637" points="101.7,392.7 103,392.5 103,408 101.6,408 
		101.7,392.7 	"/>
	<polygon stroke="#000000" stroke-width="0.2518" stroke-miterlimit="3.8637" points="99.1,420.8 100.5,420.8 100.5,427.6 
		99.1,427.6 99.1,420.8 	"/>
	<polygon stroke="#000000" stroke-width="0.2518" stroke-miterlimit="3.8637" points="101.6,420.7 103,420.7 103,427.6 101.6,427.5 
		101.6,420.7 	"/>
	<polygon stroke="#000000" stroke-width="0.2518" stroke-miterlimit="3.8637" points="106.2,374.2 107.6,374.2 107.6,383.2 
		106.3,383.3 106.2,374.2 	"/>
	<polygon stroke="#000000" stroke-width="0.2518" stroke-miterlimit="3.8637" points="108.7,374.1 110.1,374 110.1,383.1 
		108.7,383.2 108.7,374.1 	"/>
	<polygon stroke="#000000" stroke-width="0.2518" stroke-miterlimit="3.8637" points="106.2,392.4 107.6,392.3 107.6,407.8 
		106.2,407.8 106.2,392.4 	"/>
	<polygon stroke="#000000" stroke-width="0.2518" stroke-miterlimit="3.8637" points="108.7,392.3 110.1,392.3 110.1,407.7 
		108.7,407.8 108.7,392.3 	"/>
	<polygon stroke="#000000" stroke-width="0.2518" stroke-miterlimit="3.8637" points="106.2,420.6 107.6,420.6 107.6,427.4 
		106.2,427.4 106.2,420.6 	"/>
	<polygon stroke="#000000" stroke-width="0.2518" stroke-miterlimit="3.8637" points="108.8,420.5 110.1,420.5 110.1,427.4 
		108.7,427.4 108.8,420.5 	"/>
	<path fill="none" stroke="#000000" stroke-width="0.611" stroke-miterlimit="3.8637" d="M94.4,374.9l0,59.9 M97,374.8l0.1,60"/>
	<polygon stroke="#000000" stroke-width="0.2901" stroke-miterlimit="3.8637" points="149.2,377.5 151.2,377.3 151.3,388.5 
		149.3,388.6 149.2,377.5 	"/>
	<polygon stroke="#000000" stroke-width="0.2901" stroke-miterlimit="3.8637" points="152.6,377.3 154.6,377.2 154.6,388.5 
		152.6,388.5 152.6,377.3 	"/>
	<polygon stroke="#000000" stroke-width="0.2901" stroke-miterlimit="3.8637" points="149.3,393 151.3,392.9 151.3,407.5 
		149.3,407.5 149.3,393 	"/>
	<polygon stroke="#000000" stroke-width="0.2901" stroke-miterlimit="3.8637" points="152.6,392.9 154.7,392.9 154.6,407.5 
		152.6,407.5 152.6,392.9 	"/>
	<polygon stroke="#000000" stroke-width="0.2901" stroke-miterlimit="3.8637" points="149.4,421.1 151.5,421.1 151.4,435.4 
		149.4,435.4 149.4,421.1 	"/>
	<polygon stroke="#000000" stroke-width="0.2901" stroke-miterlimit="3.8637" points="152.8,421.1 154.9,421.2 154.8,435.4 
		152.8,435.4 152.8,421.1 	"/>
	<polygon stroke="#000000" stroke-width="0.2901" stroke-miterlimit="3.8637" points="159.6,376.9 161.6,376.8 161.6,388.4 
		159.6,388.4 159.6,376.9 	"/>
	<polygon stroke="#000000" stroke-width="0.2901" stroke-miterlimit="3.8637" points="163,376.7 164.9,376.6 164.9,388.4 
		162.9,388.4 163,376.7 	"/>
	<polygon stroke="#000000" stroke-width="0.2901" stroke-miterlimit="3.8637" points="159.6,392.9 161.6,392.8 161.6,407.5 
		159.6,407.5 159.6,392.9 	"/>
	<polygon stroke="#000000" stroke-width="0.2901" stroke-miterlimit="3.8637" points="162.9,392.8 165,392.8 165,407.5 162.9,407.5 
		162.9,392.8 	"/>
	<polygon stroke="#000000" stroke-width="0.2901" stroke-miterlimit="3.8637" points="159.7,421.2 161.8,421.3 161.8,435.4 
		159.7,435.4 159.7,421.2 	"/>
	<polygon stroke="#000000" stroke-width="0.2901" stroke-miterlimit="3.8637" points="163.1,421.3 165.2,421.3 165.2,435.4 
		163.1,435.4 163.1,421.3 	"/>
	<polygon stroke="#000000" stroke-width="0.2901" stroke-miterlimit="3.8637" points="169.9,376.3 171.8,376.2 171.8,388.4 
		169.8,388.4 169.9,376.3 	"/>
	<polygon stroke="#000000" stroke-width="0.2901" stroke-miterlimit="3.8637" points="173.1,376.2 175.2,376 175.2,388.3 
		173.2,388.3 173.1,376.2 	"/>
	<polygon stroke="#000000" stroke-width="0.2901" stroke-miterlimit="3.8637" points="169.8,392.7 171.9,392.7 171.9,407.5 
		169.8,407.5 169.8,392.7 	"/>
	<polygon stroke="#000000" stroke-width="0.2901" stroke-miterlimit="3.8637" points="173.2,392.7 175.3,392.7 175.2,407.5 
		173.2,407.5 173.2,392.7 	"/>
	<polygon stroke="#000000" stroke-width="0.2901" stroke-miterlimit="3.8637" points="170,421.4 172,421.4 172,435.5 169.9,435.5 
		170,421.4 	"/>
	<polygon stroke="#000000" stroke-width="0.2901" stroke-miterlimit="3.8637" points="173.4,421.5 175.5,421.5 175.5,435.5 
		173.4,435.5 173.4,421.5 	"/>
	<polygon stroke="#000000" stroke-width="0.2901" stroke-miterlimit="3.8637" points="180.3,375.7 182.3,375.6 182.3,388.3 
		180.3,388.3 180.3,375.7 	"/>
	<polygon stroke="#000000" stroke-width="0.2901" stroke-miterlimit="3.8637" points="183.6,375.6 185.7,375.4 185.7,388.3 
		183.7,388.3 183.6,375.6 	"/>
	<polygon stroke="#000000" stroke-width="0.2901" stroke-miterlimit="3.8637" points="180.3,392.5 182.3,392.5 182.3,407.3 
		180.2,407.3 180.3,392.5 	"/>
	<polygon stroke="#000000" stroke-width="0.2901" stroke-miterlimit="3.8637" points="183.7,392.4 185.8,392.4 185.7,407.3 
		183.7,407.3 183.7,392.4 	"/>
	<polygon stroke="#000000" stroke-width="0.2901" stroke-miterlimit="3.8637" points="180.5,421.6 182.5,421.6 182.5,435.5 
		180.4,435.5 180.5,421.6 	"/>
	<polygon stroke="#000000" stroke-width="0.2901" stroke-miterlimit="3.8637" points="183.8,421.6 186,421.6 185.9,435.5 
		183.8,435.5 183.8,421.6 	"/>
	<polygon stroke="#000000" stroke-width="0.2263" stroke-miterlimit="3.8637" points="123,374.5 126.7,374.7 126.7,383.1 123,382.9 
		123,374.5 	"/>
	<polygon stroke="#000000" stroke-width="0.2263" stroke-miterlimit="3.8637" points="130.8,374.9 134.6,375.1 134.6,383.4 
		130.8,383.3 130.8,374.9 	"/>
	<polygon stroke="#000000" stroke-width="0.2263" stroke-miterlimit="3.8637" points="123,392.1 126.7,392.3 126.7,400.7 123,400.6 
		123,392.1 	"/>
	<polygon stroke="#000000" stroke-width="0.2263" stroke-miterlimit="3.8637" points="130.8,392.4 134.6,392.5 134.6,401 
		130.8,400.9 130.8,392.4 	"/>
	<polygon stroke="#000000" stroke-width="0.2263" stroke-miterlimit="3.8637" points="138.3,392.7 142,392.8 142,397.5 138.3,397.3 
		138.3,392.7 	"/>
	<polygon stroke="#000000" stroke-width="0.2263" stroke-miterlimit="3.8637" points="138.3,399.3 142.1,399.4 142,408.5 
		138.3,408.4 138.3,399.3 	"/>
	<polygon stroke="#000000" stroke-width="0.2263" stroke-miterlimit="3.8637" points="138.3,375.3 142,375.5 142,380.4 138.3,380.2 
		138.3,375.3 	"/>
	<polygon stroke="#000000" stroke-width="0.2263" stroke-miterlimit="3.8637" points="138.3,382.3 142,382.5 142,390.9 138.3,390.7 
		138.3,382.3 	"/>
	<polygon stroke="#000000" stroke-width="0.2263" stroke-miterlimit="3.8637" points="123,420.7 126.8,420.7 126.8,428.9 123,428.9 
		123,420.7 	"/>
	<polygon stroke="#000000" stroke-width="0.2263" stroke-miterlimit="3.8637" points="130.9,420.6 134.7,420.6 134.6,428.9 
		130.9,428.9 130.9,420.6 	"/>
	<polygon stroke="#000000" stroke-width="0.2263" stroke-miterlimit="3.8637" points="138.3,420.6 142.1,420.6 142.1,425.4 
		138.3,425.5 138.3,420.6 	"/>
	<polygon stroke="#000000" stroke-width="0.2263" stroke-miterlimit="3.8637" points="138.3,427.5 142.1,427.5 142.1,436 138.4,436 
		138.3,427.5 	"/>
	<polygon fill="#FFFFFF" stroke="#000000" stroke-width="0.7638" stroke-miterlimit="3.8637" points="196.6,399.6 240,397.7 
		282.7,399.4 287.3,399.5 304.8,399.7 309.1,399 387.4,401.7 387.4,402.7 406.3,403.5 406.3,411.1 387.5,410.5 387.4,409.4 
		309.1,407.4 304.9,407.9 287.4,408.1 282.6,408.3 240.1,407.2 196.5,408.7 196.6,399.6 	"/>
	<polygon fill="#FFFFFF" stroke="#000000" stroke-width="0.7638" stroke-miterlimit="3.8637" points="406.4,412.1 464.9,413.5 
		494.3,412.8 543.3,414.4 543.3,420.1 494.1,418.6 464.6,419.4 406.4,417.7 406.4,412.1 	"/>
	<path fill="#FFFFFF" stroke="#000000" stroke-width="0.7479" stroke-miterlimit="3.8637" d="M364.1,399.1l0-71.5l-0.7,0l0.1-1.7
		c0,0,0.7,0.1,1.8-0.2c2.6-1,3.5-6.2,9.8-5.7c7.3,0.6,7.2,6.2,9.1,7.2c0.7,0.4,1.9,0.5,1.9,0.5l0,1.9l-1.1-0.1l0.3,70.5L364.1,399.1
		L364.1,399.1z"/>
	<path stroke="#000000" stroke-width="0.3844" stroke-miterlimit="3.8637" d="M377.5,361.2l-6-0.4c0,0,0-24.7,0-26.7
		c0-1.5,1.8-2.7,3.2-2.6c1.4,0.1,2.8,1.3,2.8,3C377.5,336.6,377.5,361.2,377.5,361.2L377.5,361.2z"/>
	<path stroke="#000000" stroke-width="0.3844" stroke-miterlimit="3.8637" d="M370,360.8l-4.5-0.3c0,0,0-25.2,0-26.8
		c-0.1-1.5,1.1-2.7,2.4-2.6c1.4,0.1,2.1,1.3,2.1,2.9C370,335.6,370,360.8,370,360.8L370,360.8z"/>
	<path stroke="#000000" stroke-width="0.3844" stroke-miterlimit="3.8637" d="M383.7,361.7l-4.5-0.3c0,0,0-24.9,0-26.6
		c0-1.5,1-2.7,2.4-2.6c1.4,0.1,2.2,1.3,2.2,3C383.7,336.7,383.7,361.7,383.7,361.7L383.7,361.7z"/>
	<polygon stroke="#000000" stroke-width="0.3844" stroke-miterlimit="3.8637" points="377.5,397.8 371.5,397.6 371.5,373.3 
		377.5,373.6 377.5,397.8 	"/>
	<polygon stroke="#000000" stroke-width="0.3844" stroke-miterlimit="3.8637" points="369.9,397.5 365.5,397.4 365.5,372.9 
		369.9,373.2 369.9,397.5 	"/>
	<polygon stroke="#000000" stroke-width="0.3844" stroke-miterlimit="3.8637" points="383.6,397.2 379.2,397.1 379.1,373.7 
		383.7,373.9 383.6,397.2 	"/>
	<path fill="#FFFFFF" stroke="#000000" stroke-width="0.7638" stroke-miterlimit="3.8637" d="M339.4,398.1l0.2-72.6l-1-0.1l0-1.7
		c0,0,0.9,0.2,2-0.2c2.6-1,3.1-6.1,9.5-5.8c7.4,0.3,7.9,6.3,9.9,7.3c0.7,0.4,2,0.5,2,0.5l-0.1,1.9l-1-0.1l0.3,71.6L339.4,398.1
		L339.4,398.1z"/>
	<path stroke="#000000" stroke-width="0.3844" stroke-miterlimit="3.8637" d="M353.2,359.7l-6.2-0.4c0,0-0.1-25.1-0.1-27.1
		c0-1.5,1.8-2.7,3.3-2.6c1.4,0.1,3,1.4,3,3.1C353.2,334.8,353.2,359.7,353.2,359.7L353.2,359.7z"/>
	<path stroke="#000000" stroke-width="0.3844" stroke-miterlimit="3.8637" d="M345.4,359.2l-4.6-0.3c0,0,0-25.6,0-27.2
		c0-1.6,1-2.8,2.5-2.7c1.4,0.1,2.2,1.3,2.2,3S345.4,359.2,345.4,359.2L345.4,359.2z"/>
	<path stroke="#000000" stroke-width="0.3844" stroke-miterlimit="3.8637" d="M359.5,360.1l-4.6-0.3c0,0,0-25.1,0-26.9
		c0-1.5,1-2.7,2.4-2.6c1.4,0.1,2.2,1.3,2.2,3C359.5,334.9,359.5,360.1,359.5,360.1L359.5,360.1z"/>
	<polygon stroke="#000000" stroke-width="0.3844" stroke-miterlimit="3.8637" points="353.2,396.9 347,396.7 347,371.9 353.2,372.3 
		353.2,396.9 	"/>
	<polygon stroke="#000000" stroke-width="0.3844" stroke-miterlimit="3.8637" points="345.4,396.6 340.9,396.4 340.8,371.6 
		345.4,371.9 345.4,396.6 	"/>
	<polygon stroke="#000000" stroke-width="0.3844" stroke-miterlimit="3.8637" points="359.6,397.2 354.9,396.9 354.9,372.4 
		359.5,372.7 359.6,397.2 	"/>
	
		<polygon fill-rule="evenodd" clip-rule="evenodd" fill="#DADADA" stroke="#000000" stroke-width="0.7638" stroke-miterlimit="3.8637" points="
		295,459 299,459 69.7,459 69.7,438.4 113.6,436.9 146.1,437.1 187.8,437.1 196.5,436.9 240.2,436 287.4,436.5 304.2,436.4 
		309.1,436.4 316.4,436.4 316.3,443 309.2,443 304.8,443 304.8,446 302.5,446 302.5,449 300,449 300.1,452.1 297.8,452.1 
		297.7,455.7 295,455.7 295,459 	"/>
	<polygon fill="#FFFFFF" stroke="#000000" stroke-width="0.7638" stroke-miterlimit="3.8637" points="282.6,323.7 240,320.3 
		196.3,324 196.6,335.2 240,331.9 282.6,335.1 282.6,323.7 	"/>
	<polygon fill="#FFFFFF" stroke="#000000" stroke-width="0.3844" stroke-miterlimit="3.8637" points="400,441.2 393.7,441.1 
		393.7,447.4 400,447.5 400,441.2 	"/>
	<polygon fill="#FFFFFF" stroke="#000000" stroke-width="0.3844" stroke-miterlimit="3.8637" points="292.4,440.5 298.8,440.4 
		298.8,446.7 292.4,446.8 292.4,440.5 	"/>
	<path fill="#FFFFFF" stroke="#000000" stroke-width="0.8568" stroke-miterlimit="3.8637" d="M341.1,399.8c-3.2,0-6.4-0.2-7-0.2
		c-0.7-0.1-1.6-0.4-1.6-1.6c0.1-1.2,0.4-1.6,0.8-2c0.7-0.7,0.8-0.1,1.2-0.9c0.4-0.8,0.6-2.3,0.6-2.3l-0.6-0.3l0.1-1l0.6-0.2l0.1-2
		l1-17.9l1.3-1.6l1.1,1.7l1,20l0.7,0.3l0.1,0.8l-0.5,0.4c0,0,0.2,1.5,0.6,1.9c0.4,0.4,1.2,0.7,1.6,1.2c0.3,0.5,0.5,0.9,0.4,1.9
		C342.4,399.1,342,399.8,341.1,399.8L341.1,399.8z"/>
	<path fill="#FFFFFF" stroke="#000000" stroke-width="0.8568" stroke-miterlimit="3.8637" d="M366,400.8c-3.2,0-6.6-0.2-7.2-0.3
		c-0.7-0.1-1.6-0.4-1.6-1.6c0.1-1.2,0.4-1.6,0.8-2c0.7-0.7,0.8-0.1,1.2-0.9c0.4-0.8,0.6-2.2,0.6-2.2l-0.6-0.2l0.1-1l0.6-0.2l0.1-2.1
		l1-17.6l1.4-1.4l1,1.5l0.9,19.9l0.7,0.2v0.9l-0.4,0.3c0,0,0.2,1.4,0.6,1.8c0.4,0.4,1.2,0.7,1.6,1.2c0.3,0.5,0.5,0.9,0.4,1.9
		C367.2,400,366.9,400.8,366,400.8L366,400.8z"/>
	<path fill="none" stroke="#FFFFFF" stroke-width="0.4488" stroke-miterlimit="3.8637" d="M344.7,321.8l10.5,1.2 M350,319.6l0,5.9
		 M347.4,319.8l0.1,5.2 M352.6,320.1v5"/>
	<path stroke="#000000" stroke-width="0.3844" stroke-miterlimit="3.8637" d="M370,323.6c0.1-1.3,2.3-2.2,4.9-1.9
		c2.6,0.3,4.6,1.6,4.4,2.9c-0.1,1.3-2.3,2.2-4.9,1.9C371.9,326.2,369.9,324.9,370,323.6L370,323.6z"/>
	<path fill="none" stroke="#FFFFFF" stroke-width="0.4488" stroke-miterlimit="3.8637" d="M369.4,323.3l10.4,1.1 M374.7,320.9l0,5.6
		 M372.1,321l-0.1,5.2 M377.1,321.4l0.1,5.1"/>
	<path stroke="#000000" stroke-width="0.2923" stroke-miterlimit="3.8637" d="M327.2,361.1c0.4,0,0.4,0.7,0.4,1.4
		c0,0.7-0.2,1.5-0.2,2c0,0.3,0.1,0.7,0.1,1.2c0,0.4,0,0.9-0.3,0.9c-0.3,0-0.3-0.4-0.3-0.9c0-0.5,0.2-0.8,0.2-1.3
		c0-0.5-0.3-1.1-0.3-2C326.8,361.9,326.8,361.1,327.2,361.1L327.2,361.1z"/>
	<path stroke="#000000" stroke-width="0.2923" stroke-miterlimit="3.8637" d="M330.7,361.3c0.4,0,0.4,0.7,0.4,1.4
		c0,0.7-0.2,1.5-0.2,2c0,0.3,0.1,0.7,0.1,1.2c0,0.4,0,0.9-0.3,0.9c-0.3,0-0.3-0.4-0.3-0.9c0-0.5,0.2-0.8,0.2-1.3
		c0-0.5-0.3-1.1-0.3-2C330.3,362.1,330.4,361.3,330.7,361.3L330.7,361.3z"/>
	<path stroke="#000000" stroke-width="0.2923" stroke-miterlimit="3.8637" d="M319.3,360.7c0.4,0,0.4,0.7,0.4,1.4
		c0,0.7-0.2,1.5-0.2,2c0,0.3,0.1,0.7,0.1,1.2c0,0.4,0,0.9-0.3,0.9c-0.3,0-0.3-0.4-0.3-0.9c0-0.5,0.2-0.8,0.2-1.3
		c0-0.5-0.3-1.1-0.3-2C318.9,361.5,319,360.7,319.3,360.7L319.3,360.7z"/>
	<path stroke="#000000" stroke-width="0.2923" stroke-miterlimit="3.8637" d="M317.8,360.6c0.4,0,0.4,0.7,0.4,1.4
		c0,0.7-0.2,1.5-0.2,2c0,0.3,0.1,0.7,0.1,1.2c0,0.4,0,0.9-0.3,0.9c-0.3,0-0.3-0.4-0.3-0.9c0-0.5,0.2-0.8,0.2-1.3
		c0-0.5-0.3-1.1-0.3-2C317.4,361.4,317.5,360.6,317.8,360.6L317.8,360.6z"/>
	<path stroke="#000000" stroke-width="0.2923" stroke-miterlimit="3.8637" d="M316.3,360.5c0.4,0,0.4,0.7,0.4,1.4
		c0,0.7-0.2,1.5-0.2,2c0,0.3,0.1,0.7,0.1,1.2c0,0.4,0,0.9-0.3,0.9c-0.3,0-0.3-0.4-0.3-0.9c0-0.5,0.2-0.8,0.2-1.3
		c0-0.5-0.3-1.1-0.3-2C316,361.3,316,360.5,316.3,360.5L316.3,360.5z"/>
	<path stroke="#000000" stroke-width="0.2923" stroke-miterlimit="3.8637" d="M325.7,361c0.4,0,0.4,0.7,0.4,1.4c0,0.7-0.2,1.5-0.2,2
		c0,0.3,0.1,0.7,0.1,1.2c0,0.4,0,0.9-0.3,0.9c-0.3,0-0.3-0.4-0.3-0.9c0-0.5,0.2-0.8,0.2-1.3c0-0.5-0.3-1.1-0.3-2
		C325.4,361.8,325.4,361,325.7,361L325.7,361z"/>
	<path stroke="#000000" stroke-width="0.2923" stroke-miterlimit="3.8637" d="M324.2,361c0.4,0,0.4,0.7,0.4,1.4c0,0.7-0.2,1.5-0.2,2
		c0,0.3,0.1,0.7,0.1,1.2c0,0.4,0,0.9-0.3,0.9c-0.3,0-0.3-0.4-0.3-0.9c0-0.5,0.2-0.8,0.2-1.3c0-0.5-0.3-1.1-0.3-2
		C323.9,361.8,323.9,360.9,324.2,361L324.2,361z"/>
	<path stroke="#000000" stroke-width="0.2923" stroke-miterlimit="3.8637" d="M322.8,360.9c0.4,0,0.4,0.7,0.4,1.4
		c0,0.7-0.2,1.5-0.2,2c0,0.3,0.1,0.7,0.1,1.2c0,0.4,0,0.9-0.3,0.9c-0.3,0-0.3-0.4-0.3-0.9c0-0.5,0.2-0.8,0.2-1.3
		c0-0.5-0.3-1.1-0.3-2C322.4,361.7,322.5,360.9,322.8,360.9L322.8,360.9z"/>
	<path stroke="#000000" stroke-width="0.2923" stroke-miterlimit="3.8637" d="M332.1,361.4c0.4,0,0.4,0.7,0.4,1.4
		c0,0.7-0.2,1.5-0.2,2c0,0.3,0.1,0.7,0.1,1.2c0,0.4,0,0.9-0.3,0.9c-0.3,0-0.3-0.4-0.3-0.9c0-0.5,0.2-0.8,0.2-1.3
		c0-0.5-0.3-1.1-0.3-2C331.8,362.2,331.8,361.4,332.1,361.4L332.1,361.4z"/>
	<path fill="none" stroke="#000000" stroke-width="0.7638" stroke-miterlimit="3.8637" d="M387.4,316.1l0.1,126.7 M282.7,304.5
		v154.6 M340.7,324.6l18.2,1.5"/>
	
		<line fill="none" stroke="#000000" stroke-width="0.7479" stroke-miterlimit="3.8637" x1="365.5" y1="326.6" x2="383.1" y2="327.9"/>
	<path fill="none" stroke="#000000" stroke-width="0.7638" stroke-miterlimit="3.8637" d="M315.8,322.5l17.7,1.5 M290.9,367.3
		l9.6,0.5 M291.1,357.4l9.6,0.5 M315.6,358.7l19.2,1.2 M315.5,368.5l19.2,1.1 M340.8,369.8l18.8,1.1 M365.3,371l18.5,1.1
		 M365.3,361.7l18.4,1.2 M340.6,360.3l19.1,1.2"/>
	<path fill="none" stroke="#000000" stroke-width="0.6893" stroke-miterlimit="3.8637" d="M392.4,372.5l8.5,0.4 M392.5,363.3
		l8.4,0.5"/>
	<path stroke="#000000" stroke-width="0.3844" stroke-miterlimit="3.8637" d="M345.7,321.4c0.1-1.3,2.3-2.2,4.9-1.9
		c2.6,0.3,4.6,1.6,4.4,2.9c-0.1,1.3-2.3,2.2-4.9,1.9C347.5,324.1,345.5,322.8,345.7,321.4L345.7,321.4z"/>
	<path fill="none" stroke="#FFFFFF" stroke-width="0.4488" stroke-miterlimit="3.8637" d="M345,321.1l10.4,1.1 M350.3,318.8l0,5.6
		 M347.8,318.8l-0.1,5.2 M352.8,319.3l0.1,5.1"/>
	<path stroke="#000000" stroke-width="0.3844" stroke-miterlimit="3.8637" d="M320.2,319.3c0.1-1.3,2.3-2.2,4.9-1.9
		c2.6,0.3,4.6,1.6,4.4,2.9c-0.1,1.3-2.3,2.2-4.9,1.9C322,321.9,320.1,320.6,320.2,319.3L320.2,319.3z"/>
	<path fill="none" stroke="#FFFFFF" stroke-width="0.4488" stroke-miterlimit="3.8637" d="M319.6,319L330,320 M324.8,316.6l0,5.6
		 M322.3,316.6l-0.1,5.2 M327.3,317.1l0.1,5.1"/>
	<polygon fill="#FFFFFF" stroke="#000000" stroke-width="0.7638" stroke-miterlimit="3.8637" points="309.1,443 391.8,443 
		391.9,446 395.1,446 395.1,449.4 398.6,449.4 398.6,452.4 402.4,452.4 402.5,455.6 406.3,455.6 406.3,458.9 299.9,459 299.9,455.7 
		302.2,455.7 302.2,452.1 304.6,452.1 304.6,449 306.9,449 307,446 309.1,446 309.1,443 	"/>
	<path fill="none" stroke="#000000" stroke-width="0.7638" stroke-miterlimit="3.8637" d="M295,455.7l107.8-0.1 M297.8,452.1
		l101.7,0.3 M300.5,449l95.2,0.5 M309.1,446h82.7 M299.7,459l-4.7,0v-3.4h2.7v-3.5h2.3V449h2.5v-3h2.2v-3l4.2,0 M302.8,446l4.1,0"/>
	<path stroke="#000000" stroke-width="0.3844" stroke-miterlimit="3.8637" d="M322.5,296.4c-5.7-1.1-7.9,3.4-11.6,3.6l19.8,2.2
		C326.6,300.5,326.9,297.2,322.5,296.4L322.5,296.4z"/>
	<path stroke="#000000" stroke-width="0.3844" stroke-miterlimit="3.8637" d="M348.9,299c-5.7-1.1-7.8,3.7-11.5,4l19.9,1.9
		C353.1,303.2,353.2,299.9,348.9,299L348.9,299z"/>
	<path stroke="#000000" stroke-width="0.3844" stroke-miterlimit="3.8637" d="M375.8,301.8c-5.7-1.1-7.9,3.4-11.6,3.6l19.9,2
		C379.9,305.6,380.1,302.6,375.8,301.8L375.8,301.8z"/>
	<path stroke="#000000" stroke-width="0.3844" stroke-miterlimit="3.8637" d="M437.4,351.9c-5.9-0.5-7.3,3.6-11,3.9l20,1.5
		C442.3,355.5,441.8,352.3,437.4,351.9L437.4,351.9z"/>
	<path stroke="#000000" stroke-width="0.3844" stroke-miterlimit="3.8637" d="M518.6,354.2c-5.8-0.6-7.4,4-11.1,4.3l19.9,1.5
		C523.2,358.2,522.8,354.6,518.6,354.2L518.6,354.2z"/>
	<path stroke="#000000" stroke-width="0.3844" stroke-miterlimit="3.8637" d="M223.1,296.5c-4.6,0.5-4.7,3.2-9.4,5.5l19.4-2.7
		C228.5,299.1,228,295.9,223.1,296.5L223.1,296.5z"/>
	<path stroke="#000000" stroke-width="0.3844" stroke-miterlimit="3.8637" d="M170.7,356.4c-5.8,0-7.1,4.8-10.6,5.8l20-1.2
		C175.6,360,175.1,356.4,170.7,356.4L170.7,356.4z"/>
	<path stroke="#000000" stroke-width="0.3844" stroke-miterlimit="3.8637" d="M94.4,357.3c-4.3,0.5-6,3.9-9.5,5.1l19.9-1.4
		C100.9,360.5,99.1,356.7,94.4,357.3L94.4,357.3z"/>
	<path fill="none" stroke="#000000" stroke-width="1.6272" stroke-miterlimit="3.8637" d="M465,364.1l-7.6-33l-10.5-0.8
		 M490.9,311.5c0,0,3.9,37.9,3.9,41.3c0.1,3.7,0.9,7.8,0.9,7.8"/>
	<path fill="none" stroke="#000000" stroke-width="2.3096" stroke-miterlimit="3.8637" d="M159.9,330.6c0,0-5.4,1-6.2,4.3
		c-0.8,3.3-7.7,32.4-7.7,32.4v4l0,87.7"/>
	<path fill="none" stroke="#000000" stroke-width="2.1702" stroke-miterlimit="3.8637" d="M126.6,318.5c0,0-11.4,35-12.6,38.9
		c-1.2,3.9-1.7,6.8-1.7,6.8l1.1,4.4l0,90.5"/>
	<path fill="#FFFFFF" stroke="#000000" stroke-width="0.7638" stroke-miterlimit="3.8637" d="M296.4,239.5l7.5,9.6l3.3,1
		c0,0,4.6,5,10.2,5c6.9,0,9.5-2.8,9.5-2.8l2.4-0.4v-14.5l-2.8-0.6c0,0-3.8-2.3-9.3-3.2c-5.3-0.9-10.1-1.3-10.1-1.3h-2.6l-8.3,3.8
		L296.4,239.5L296.4,239.5z"/>
	<polygon stroke="#000000" stroke-width="0.7638" stroke-miterlimit="3.8637" points="303.7,248.9 303.7,224.5 307.1,224.4 
		307.1,250.3 303.7,248.9 	"/>
	<polygon stroke="#000000" stroke-width="0.7638" stroke-miterlimit="3.8637" points="326.8,252 327,229.4 329.3,230.4 329.2,237.4 
		329.3,251.8 326.8,252 	"/>
	<path fill="none" stroke="#000000" stroke-width="1.5437" stroke-miterlimit="3.8637" d="M297.2,235.5l0.1-7.4c0,0,2.8-2.1,3.9-2.2
		c1-0.1,2.7-0.4,2.7-0.4 M307.1,224.9c0,0,5.4,0,8.9,0.7c3.5,0.7,10.8,4.2,10.8,4.2"/>
	<path fill="none" stroke="#000000" stroke-width="0.7638" stroke-miterlimit="3.8637" d="M296.4,238.6l7.4-2.8l3.3,0.3
		c0,0,6.1,0.4,9.9,1.3c3.8,0.9,9.8,3.1,9.8,3.1h2.4"/>
	<path stroke="#000000" stroke-width="0.7638" stroke-miterlimit="3.8637" d="M311,242.5c0.3-1.5,2.7-2.3,5.3-1.8
		c2.6,0.5,4.5,2.1,4.2,3.6c-0.3,1.5-2.7,2.3-5.3,1.8C312.6,245.6,310.7,244,311,242.5L311,242.5z"/>
	<path fill="none" stroke="#FFFFFF" stroke-width="0.7638" stroke-miterlimit="3.8637" d="M315,239.2l-0.1,7.5 M318.8,240l0.1,6.7
		 M310.6,241.9l11,1.6"/>
	<path fill="none" stroke="#000000" stroke-width="1.0875" stroke-miterlimit="3.8637" d="M251.6,301.8l-4.4-42.6 M287.4,302.5
		l-4.7-65.4"/>
	<path fill="none" stroke="#000000" stroke-width="0.7638" stroke-miterlimit="3.8637" d="M387.4,402.3l18.9,0.7 M387.4,410.5
		l18.9,0.7"/>
	
		<line fill="none" stroke="#000000" stroke-width="2.1702" stroke-miterlimit="3.8637" x1="406.4" y1="317.5" x2="406.3" y2="459.7"/>
	<path fill="none" stroke="#000000" stroke-width="0.7638" stroke-miterlimit="3.8637" d="M316.4,442.7c0,0,0-16.4,0-19
		c0-2.5,1.7-8.6,7.5-8.3c5.9,0.2,7,5.1,7,8.7c0,3.7,0,18.8,0,18.8 M316.4,440.4h14.5 M316.4,437.8l14.4,0.3 M316.4,435.7h14.5
		 M316.4,433.4l14.5,0.3 M340.1,442.7c0,0,0-16,0-18.6c0-2.5,1.7-8.4,7.5-8.2c5.9,0.2,7,4.7,7,8.4c0,3.7,0,18.6,0,18.6 M340.1,440.4
		h14.5 M340.1,437.8l14.4,0.1 M340.1,435.7h14.5 M340.1,433.7l14.5,0.3 M365.4,442.7c0,0,0-15.6,0-18.2c0-2.5,1.6-8.1,7.4-7.8
		c5.9,0.2,7.2,4.3,7.2,8c0,3.7,0,18.3,0,18.3 M365.4,440.4h14.5 M365.4,437.8l14.4,0.3 M365.4,435.7l14.4,0.2 M365.4,434.1l14.4,0.3
		"/>
	<line fill="none" stroke="#000000" stroke-width="2.3096" stroke-miterlimit="3.8637" x1="188" y1="311.1" x2="187.8" y2="459"/>
	<polyline fill="none" stroke="#000000" stroke-width="0.7638" stroke-miterlimit="3.8637" points="251.6,301.3 251.2,305.3 
		251.2,321.3 	"/>
	<line fill="none" stroke="#000000" stroke-width="1.5437" stroke-miterlimit="3.8637" x1="196.4" y1="323.9" x2="196.6" y2="459"/>
	
		<line fill="none" stroke="#000000" stroke-width="0.611" stroke-miterlimit="3.8637" x1="119.7" y1="374.4" x2="119.7" y2="434.8"/>
	<path fill="none" stroke="#000000" stroke-width="0.7638" stroke-miterlimit="3.8637" d="M255.7,333.2l0,102.8 M304.8,446v-46.3
		v-90.9"/>
	<line fill="none" stroke="#000000" stroke-width="1.5437" stroke-miterlimit="3.8637" x1="465.1" y1="363.8" x2="465" y2="437.5"/>
	<path fill="none" stroke="#000000" stroke-width="0.611" stroke-miterlimit="3.8637" d="M292.4,442.2h6.3 M292.4,444.8l6.3,0.1"/>
	<path fill="none" stroke="#000000" stroke-width="0.4488" stroke-miterlimit="3.8637" d="M294.2,440.5l0.1,6.2 M296.8,440.5
		l0.1,6.2"/>
	<path stroke="#000000" stroke-width="0.2923" stroke-miterlimit="3.8637" d="M344.4,362.3c0.4,0,0.4,0.7,0.4,1.3
		c0,0.7-0.2,1.5-0.2,1.9c0,0.3,0.1,0.7,0.1,1.2c0,0.4,0,0.9-0.3,0.9c-0.3,0-0.3-0.4-0.3-0.9c0-0.5,0.2-0.8,0.2-1.2
		c0-0.5-0.3-1.1-0.3-1.9C344.1,363.1,344.1,362.3,344.4,362.3L344.4,362.3z"/>
	<path stroke="#000000" stroke-width="0.2923" stroke-miterlimit="3.8637" d="M342.9,362.2c0.4,0,0.4,0.7,0.4,1.3
		c0,0.7-0.2,1.5-0.2,1.9c0,0.3,0.1,0.7,0.1,1.2c0,0.4,0,0.9-0.3,0.9c-0.3,0-0.3-0.4-0.3-0.9c0-0.5,0.2-0.8,0.2-1.2
		c0-0.5-0.3-1.1-0.3-1.9C342.6,363,342.6,362.2,342.9,362.2L342.9,362.2z"/>
	<path stroke="#000000" stroke-width="0.2923" stroke-miterlimit="3.8637" d="M341.5,362.1c0.4,0,0.4,0.7,0.4,1.3
		c0,0.7-0.2,1.5-0.2,1.9c0,0.3,0.1,0.7,0.1,1.2c0,0.4,0,0.9-0.3,0.9c-0.3,0-0.3-0.4-0.3-0.9c0-0.5,0.2-0.8,0.2-1.2
		c0-0.5-0.3-1.1-0.3-1.9C341.1,362.9,341.2,362.1,341.5,362.1L341.5,362.1z"/>
	<path stroke="#000000" stroke-width="0.2923" stroke-miterlimit="3.8637" d="M358.6,363.1c0.4,0,0.4,0.7,0.4,1.3
		c0,0.7-0.2,1.5-0.2,1.9c0,0.3,0.1,0.7,0.1,1.2c0,0.4,0,0.9-0.3,0.9c-0.3,0-0.3-0.4-0.3-0.9c0-0.5,0.2-0.8,0.2-1.2
		c0-0.5-0.3-1.1-0.3-1.9C358.2,363.8,358.3,363,358.6,363.1L358.6,363.1z"/>
	<path stroke="#000000" stroke-width="0.2923" stroke-miterlimit="3.8637" d="M357.1,363c0.4,0,0.4,0.7,0.4,1.3
		c0,0.7-0.2,1.5-0.2,1.9c0,0.3,0.1,0.7,0.1,1.2c0,0.4,0,0.9-0.3,0.9c-0.3,0-0.3-0.4-0.3-0.9c0-0.5,0.2-0.8,0.2-1.2
		c0-0.5-0.3-1.1-0.3-1.9C356.8,363.8,356.8,362.9,357.1,363L357.1,363z"/>
	<path stroke="#000000" stroke-width="0.2923" stroke-miterlimit="3.8637" d="M355.7,362.9c0.4,0,0.4,0.7,0.4,1.3
		c0,0.7-0.2,1.5-0.2,1.9c0,0.3,0.1,0.7,0.1,1.2c0,0.4,0,0.9-0.3,0.9c-0.3,0-0.3-0.4-0.3-0.9c0-0.5,0.2-0.8,0.2-1.2
		c0-0.5-0.3-1.1-0.3-1.9C355.3,363.7,355.4,362.9,355.7,362.9L355.7,362.9z"/>
	<path stroke="#000000" stroke-width="0.2923" stroke-miterlimit="3.8637" d="M350.8,362.6c0.4,0,0.4,0.7,0.4,1.3
		c0,0.7-0.2,1.5-0.2,1.9c0,0.3,0.1,0.7,0.1,1.2c0,0.4,0,0.9-0.3,0.9c-0.3,0-0.3-0.4-0.3-0.9c0-0.5,0.2-0.8,0.2-1.2
		c0-0.5-0.3-1.1-0.3-1.9C350.4,363.4,350.5,362.6,350.8,362.6L350.8,362.6z"/>
	<path stroke="#000000" stroke-width="0.2923" stroke-miterlimit="3.8637" d="M349.3,362.6c0.4,0,0.4,0.7,0.4,1.3
		c0,0.7-0.2,1.5-0.2,1.9c0,0.3,0.1,0.7,0.1,1.2c0,0.4,0,0.9-0.3,0.9c-0.3,0-0.3-0.4-0.3-0.9c0-0.5,0.2-0.8,0.2-1.2
		c0-0.5-0.3-1.1-0.3-1.9C349,363.3,349,362.5,349.3,362.6L349.3,362.6z"/>
	<path stroke="#000000" stroke-width="0.2923" stroke-miterlimit="3.8637" d="M347.9,362.5c0.4,0,0.4,0.7,0.4,1.3
		c0,0.7-0.2,1.5-0.2,1.9c0,0.3,0.1,0.7,0.1,1.2c0,0.4,0,0.9-0.3,0.9c-0.3,0-0.3-0.4-0.3-0.9c0-0.5,0.2-0.8,0.2-1.2
		c0-0.5-0.3-1.1-0.3-1.9C347.5,363.3,347.6,362.5,347.9,362.5L347.9,362.5z"/>
	<path stroke="#000000" stroke-width="0.2923" stroke-miterlimit="3.8637" d="M352.2,362.7c0.4,0,0.4,0.7,0.4,1.3
		c0,0.7-0.2,1.5-0.2,1.9c0,0.3,0.1,0.7,0.1,1.2c0,0.4,0,0.9-0.3,0.9c-0.3,0-0.3-0.4-0.3-0.9c0-0.5,0.2-0.8,0.2-1.2
		c0-0.5-0.3-1.1-0.3-1.9C351.8,363.5,351.9,362.7,352.2,362.7L352.2,362.7z"/>
	<path stroke="#000000" stroke-width="0.2923" stroke-miterlimit="3.8637" d="M369,363.9c0.4,0,0.4,0.7,0.4,1.3
		c0,0.7-0.2,1.4-0.2,1.9c0,0.3,0.1,0.7,0.1,1.2c0,0.4,0,0.9-0.3,0.8c-0.2,0-0.3-0.4-0.3-0.8c0-0.5,0.2-0.8,0.2-1.2
		c0-0.5-0.3-1-0.2-1.9C368.6,364.6,368.7,363.8,369,363.9L369,363.9z"/>
	<path stroke="#000000" stroke-width="0.2923" stroke-miterlimit="3.8637" d="M367.5,363.8c0.4,0,0.4,0.7,0.4,1.3
		c0,0.7-0.2,1.4-0.2,1.9c0,0.3,0.1,0.7,0.1,1.2c0,0.4,0,0.9-0.3,0.8c-0.2,0-0.3-0.4-0.3-0.8c0-0.5,0.2-0.8,0.2-1.2
		c0-0.5-0.3-1-0.2-1.9C367.2,364.5,367.2,363.8,367.5,363.8L367.5,363.8z"/>
	<path stroke="#000000" stroke-width="0.2923" stroke-miterlimit="3.8637" d="M366.2,363.7c0.4,0,0.4,0.7,0.4,1.3
		c0,0.7-0.2,1.4-0.2,1.9c0,0.3,0.1,0.7,0.1,1.2c0,0.4,0,0.9-0.3,0.8c-0.2,0-0.3-0.4-0.3-0.8c0-0.5,0.2-0.8,0.2-1.2
		c0-0.5-0.3-1-0.2-1.9C365.8,364.5,365.8,363.7,366.2,363.7L366.2,363.7z"/>
	<path stroke="#000000" stroke-width="0.2923" stroke-miterlimit="3.8637" d="M382.7,364.6c0.4,0,0.4,0.7,0.4,1.3
		c0,0.7-0.2,1.4-0.2,1.9c0,0.3,0.1,0.7,0.1,1.2c0,0.4,0,0.9-0.3,0.8c-0.2,0-0.3-0.4-0.3-0.8c0-0.5,0.2-0.8,0.2-1.2
		c0-0.5-0.3-1-0.2-1.9C382.4,365.4,382.4,364.6,382.7,364.6L382.7,364.6z"/>
	<path stroke="#000000" stroke-width="0.2923" stroke-miterlimit="3.8637" d="M381.3,364.5c0.4,0,0.4,0.7,0.4,1.3
		c0,0.7-0.2,1.4-0.2,1.9c0,0.3,0.1,0.7,0.1,1.2c0,0.4,0,0.9-0.3,0.8c-0.2,0-0.3-0.4-0.3-0.8c0-0.5,0.2-0.8,0.2-1.2
		c0-0.5-0.3-1-0.2-1.9C381,365.3,381,364.5,381.3,364.5L381.3,364.5z"/>
	<path stroke="#000000" stroke-width="0.2923" stroke-miterlimit="3.8637" d="M379.9,364.4c0.4,0,0.4,0.7,0.4,1.3
		c0,0.7-0.2,1.4-0.2,1.9c0,0.3,0.1,0.7,0.1,1.2c0,0.4,0,0.9-0.3,0.8c-0.2,0-0.3-0.4-0.3-0.8c0-0.5,0.2-0.8,0.2-1.2
		c0-0.5-0.3-1-0.2-1.9C379.6,365.2,379.6,364.4,379.9,364.4L379.9,364.4z"/>
	<path stroke="#000000" stroke-width="0.2923" stroke-miterlimit="3.8637" d="M375.2,364.2c0.4,0,0.4,0.7,0.4,1.3
		c0,0.7-0.2,1.4-0.2,1.9c0,0.3,0.1,0.7,0.1,1.2c0,0.4,0,0.9-0.3,0.8c-0.2,0-0.3-0.4-0.3-0.8c0-0.5,0.2-0.8,0.2-1.2
		c0-0.5-0.3-1-0.2-1.9C374.8,365,374.9,364.2,375.2,364.2L375.2,364.2z"/>
	<path stroke="#000000" stroke-width="0.2923" stroke-miterlimit="3.8637" d="M373.7,364.1c0.4,0,0.4,0.7,0.4,1.3
		c0,0.7-0.2,1.4-0.2,1.9c0,0.3,0.1,0.7,0.1,1.2c0,0.4,0,0.9-0.3,0.8c-0.2,0-0.3-0.4-0.3-0.8c0-0.5,0.2-0.8,0.2-1.2
		c0-0.5-0.3-1-0.2-1.9C373.4,364.9,373.4,364.1,373.7,364.1L373.7,364.1z"/>
	<path stroke="#000000" stroke-width="0.2923" stroke-miterlimit="3.8637" d="M372.3,364c0.4,0,0.4,0.7,0.4,1.3
		c0,0.7-0.2,1.4-0.2,1.9c0,0.3,0.1,0.7,0.1,1.2c0,0.4,0,0.9-0.3,0.8c-0.2,0-0.3-0.4-0.3-0.8c0-0.5,0.2-0.8,0.2-1.2
		c0-0.5-0.3-1-0.2-1.9C372,364.8,372,364,372.3,364L372.3,364z"/>
	<path stroke="#000000" stroke-width="0.2923" stroke-miterlimit="3.8637" d="M376.5,364.2c0.4,0,0.4,0.7,0.4,1.3
		c0,0.7-0.2,1.4-0.2,1.9c0,0.3,0.1,0.7,0.1,1.2c0,0.4,0,0.9-0.3,0.8c-0.2,0-0.3-0.4-0.3-0.8c0-0.5,0.2-0.8,0.2-1.2
		c0-0.5-0.3-1-0.2-1.9C376.2,365,376.2,364.2,376.5,364.2L376.5,364.2z"/>
	<path fill="none" stroke="#000000" stroke-width="0.5237" stroke-miterlimit="3.8637" d="M536.4,438.6l0,14.2 M538.4,438.7
		l-0.1,14.1"/>
	<path fill="#FFFFFF" stroke="#000000" stroke-width="0.7638" stroke-miterlimit="3.8637" d="M335.8,396c0-1.4,0.8-2.5,1.7-2.5
		c0.9,0,1.7,1.1,1.7,2.5c0,1.4-0.8,2.5-1.7,2.5C336.5,398.6,335.8,397.4,335.8,396L335.8,396z"/>
	<path fill="#FFFFFF" stroke="#000000" stroke-width="0.7638" stroke-miterlimit="3.8637" d="M360.5,396.9c0-1.4,0.8-2.5,1.7-2.5
		c0.9,0,1.7,1.1,1.7,2.5c0,1.4-0.8,2.5-1.7,2.5C361.3,399.5,360.5,398.3,360.5,396.9L360.5,396.9z"/>
	<polyline fill="none" stroke="#000000" stroke-width="0.7638" stroke-miterlimit="3.8637" points="309.1,443 309.1,399.1 
		311.4,398.7 311,309.1 	"/>
	<path fill="#FFFFFF" stroke="#000000" stroke-width="0.8568" stroke-miterlimit="3.8637" d="M316.4,399.1c-3.2,0-6.4,0-7.1-0.1
		c-0.7-0.1-1.6-0.4-1.6-1.6c0.1-1.2,0.4-1.6,0.8-2c0.7-0.7,0.8-0.1,1.2-0.9c0.4-0.8,0.6-2.6,0.6-2.6l-0.5-0.3l0.1-1l0.6-0.3l0.1-1.7
		l1.1-18.6l1.2-1.4l1.2,1.6l0.9,20.2l0.7,0.2l0,1l-0.4,0.3c0,0,0.2,1.9,0.5,2.3c0.4,0.4,1.2,0.7,1.6,1.2c0.3,0.5,0.5,0.9,0.4,1.9
		C317.7,398.4,317.3,399.1,316.4,399.1L316.4,399.1z"/>
	<line fill="none" stroke="#000000" stroke-width="1.5437" stroke-miterlimit="3.8637" x1="240.2" y1="320.5" x2="240.1" y2="459"/>
	
		<line fill="none" stroke="#000000" stroke-width="0.611" stroke-miterlimit="3.8637" x1="399.9" y1="445.6" x2="393.7" y2="445.6"/>
	<path fill="none" stroke="#000000" stroke-width="0.4488" stroke-miterlimit="3.8637" d="M398.2,441.1l-0.1,6.3 M395.7,441.1
		l-0.1,6.3"/>
	<line fill="none" stroke="#000000" stroke-width="0.611" stroke-miterlimit="3.8637" x1="400" y1="443.1" x2="393.7" y2="443"/>
	<line fill="none" stroke="#000000" stroke-width="2.1702" stroke-miterlimit="3.8637" x1="287.4" y1="302.2" x2="287.3" y2="459"/>
	<path fill="#FFFFFF" stroke="#000000" stroke-width="0.8568" stroke-miterlimit="3.8637" d="M387.4,401.4c-3.2,0-6.6-0.2-7.3-0.3
		c-0.7-0.1-1.7-0.7-1.6-1.8c0.1-1.2,0.4-1.6,0.8-2c0.7-0.7,0.8-0.1,1.2-0.9c0.4-0.8,0.6-1.8,0.6-1.8l-0.5-0.2l0.1-0.9l0.5-0.2
		l0.2-2.6l0.9-16.8l1.5-1.7l1.1,1.7l0.9,19.6l0.7,0.3l0,0.9l-0.2,0.3c0,0,0.1,0.9,0.4,1.3c0.4,0.4,1.2,0.7,1.6,1.2
		c0.3,0.5,0.5,0.9,0.4,1.9C388.4,400.4,388.2,401.4,387.4,401.4L387.4,401.4z"/>
	<polyline fill="none" stroke="#000000" stroke-width="1.5437" stroke-miterlimit="3.8637" points="496.3,360.3 494.3,366.7 
		494.3,438 	"/>
	<path fill="none" stroke="#000000" stroke-width="0.611" stroke-miterlimit="3.8637" d="M206.8,311.7v9.6 M224.2,310l0,9.7
		 M229.4,309.7l0,9.5"/>
	<polygon stroke="#000000" stroke-width="0.3844" stroke-miterlimit="3.8637" points="298.9,356 292.5,355.6 292.5,333.8 
		298.9,334.3 298.9,356 	"/>
	<polygon stroke="#000000" stroke-width="0.3844" stroke-miterlimit="3.8637" points="298.8,395.4 292.5,395.2 292.5,369.6 
		298.9,370 298.8,395.4 	"/>
	<polygon stroke="#000000" stroke-width="0.3844" stroke-miterlimit="3.8637" points="399.5,397.2 393.9,397.1 393.9,374.6 
		399.5,374.9 399.5,397.2 	"/>
	<polygon stroke="#000000" stroke-width="0.3844" stroke-miterlimit="3.8637" points="399.5,362.2 393.9,361.9 393.8,341 
		399.5,341.5 399.5,362.2 	"/>
	<line fill="none" stroke="#000000" stroke-width="0.611" stroke-miterlimit="3.8637" x1="212" y1="311" x2="212" y2="320.8"/>
	<path fill="#FFFFFF" stroke="#000000" stroke-width="0.7638" stroke-miterlimit="3.8637" d="M311.1,395.4c0-1.4,0.8-2.5,1.7-2.5
		s1.7,1.1,1.7,2.5c0,1.4-0.8,2.5-1.7,2.5S311.1,396.8,311.1,395.4L311.1,395.4z"/>
	<path fill="#FFFFFF" stroke="#000000" stroke-width="0.7638" stroke-miterlimit="3.8637" d="M381.9,397.5c0-1.4,0.8-2.5,1.7-2.5
		s1.7,1.1,1.7,2.5c0,1.4-0.8,2.5-1.7,2.5S381.9,398.9,381.9,397.5L381.9,397.5z"/>
</g>
</svg>
