<?xml version="1.0" encoding="utf-8"?>
<!-- Generator: Adobe Illustrator 18.1.1, SVG Export Plug-In . SVG Version: 6.00 Build 0)  -->
<svg version="1.1" id="Layer_1" xmlns="http://www.w3.org/2000/svg" xmlns:xlink="http://www.w3.org/1999/xlink" x="0px" y="0px"
	 viewBox="-242 334 126 126" enable-background="new -242 334 126 126" xml:space="preserve">
<path fill="#353535" stroke="#000000" stroke-miterlimit="10" d="M-196.7,351.7c-12,1.3-29.3,28-29.3,28v38l16.7,18.7l34.7,11.3
	l25.3-9.3l18.7-30.7v-29.3l-15.3-20l-26.7-9.3L-196.7,351.7z"/>
<path d="M-179,450c13.6,0,27.2-5.2,37.5-15.5c20.7-20.7,20.7-54.3,0-75c-10.3-10.3-23.9-15.5-37.5-15.5c-13.6,0-27.2,5.2-37.5,15.5
	c-20.7,20.7-20.7,54.3,0,75C-206.2,444.9-192.6,450-179,450z M-210.7,365.3c8.7-8.7,20.2-13.1,31.7-13.1c11.5,0,23,4.4,31.7,13.1
	c17.5,17.5,17.5,46,0,63.5c-8.7,8.7-20.2,13.1-31.7,13.1c-11.5,0-23-4.4-31.7-13.1c-2.2-2.2-4.1-4.5-5.7-7
	C-228,404.3-226,380.6-210.7,365.3z M-180,417c0-2.5,1.3-4.5,2.9-4.5h24.3c1.6,0,2.9,2,2.9,4.5s-1.3,4.5-2.9,4.5h-24.3
	C-178.7,421.5-180,419.5-180,417z M-200.3,374.6c0-4.1,3.1-7.5,7-7.5c3.8,0,7,3.3,7,7.5c0,4.1-3.1,7.5-7,7.5
	C-197.2,382.1-200.3,378.8-200.3,374.6z M-170.7,374.6c0-4.1,3.1-7.5,7-7.5c3.8,0,7,3.3,7,7.5c0,4.1-3.1,7.5-7,7.5
	C-167.6,382.1-170.7,378.8-170.7,374.6z"/>
</svg>
