<?xml version="1.0" encoding="utf-8"?>
<!-- Generator: Adobe Illustrator 18.1.1, SVG Export Plug-In . SVG Version: 6.00 Build 0)  -->
<svg version="1.1" id="Layer_1" xmlns="http://www.w3.org/2000/svg" xmlns:xlink="http://www.w3.org/1999/xlink" x="0px" y="0px"
	 viewBox="0 0 612 792" enable-background="new 0 0 612 792" xml:space="preserve">
<path fill="#B5B5B5" stroke="#000000" stroke-miterlimit="10" d="M220,176c-58.3,6.3-142.3,136-142.3,136v184.6l81.1,90.8
	l168.5,54.9l122.9-45.2L541.1,448V305.7l-74.3-97.1l-129.7-45.2L220,176z"/>
<path d="M306,653.4c66.1,0,132.1-25.3,182.1-75.3c100.5-100.5,100.5-263.7,0-364.3c-50-50-116.1-75.3-182.1-75.3
	s-132.1,25.3-182.1,75.3c-100.5,100.5-100.5,263.7,0,364.3C173.9,628.7,239.9,653.4,306,653.4z M152,242
	c42.3-42.3,98.1-63.6,154-63.6s111.7,21.4,154,63.6c85,85,85,223.4,0,308.4c-42.3,42.3-98.1,63.6-154,63.6s-111.7-21.4-154-63.6
	c-10.7-10.7-19.9-21.9-27.7-34C68,431.5,77.7,316.3,152,242z M301.1,493.1c0-12.1,6.3-21.9,14.1-21.9h118c7.8,0,14.1,9.7,14.1,21.9
	c0,12.1-6.3,21.9-14.1,21.9h-118C307.5,515,301.1,505.3,301.1,493.1z M202.5,287.2c0-19.9,15.1-36.4,34-36.4c18.5,0,34,16,34,36.4
	c0,19.9-15.1,36.4-34,36.4S202.5,307.6,202.5,287.2z M346.3,287.2c0-19.9,15.1-36.4,34-36.4c18.5,0,34,16,34,36.4
	c0,19.9-15.1,36.4-34,36.4C361.4,323.6,346.3,307.6,346.3,287.2z"/>
</svg>
