<?xml version="1.0" encoding="utf-8"?>
<!-- Generator: Adobe Illustrator 18.1.1, SVG Export Plug-In . SVG Version: 6.00 Build 0)  -->
<svg version="1.1" id="Layer_1" xmlns="http://www.w3.org/2000/svg" xmlns:xlink="http://www.w3.org/1999/xlink" x="0px" y="0px"
	 viewBox="0 0 612 792" enable-background="new 0 0 612 792" xml:space="preserve">
<path fill="#990000" stroke="#000000" stroke-miterlimit="10" d="M220,171.1c-58.3,6.3-142.3,136-142.3,136v184.6l81.1,90.8
	l168.5,54.9l122.9-45.2l90.8-149.1V300.8l-74.3-97.1l-129.7-45.2L220,171.1z"/>
<path d="M488.1,213.9c-100.5-100.5-263.7-100.5-364.3,0s-100.5,263.7,0,364.3s263.7,100.5,364.3,0S588.7,314.4,488.1,213.9z
	 M460,550c-85,85-223.4,85-308.4,0s-85-223.4,0-308.4s223.4-85,308.4,0C545,327,545,465,460,550z M422.6,498c3.4,7.3,0,16-7.8,18.9
	c-7.3,3.4-16,0-18.9-7.8c-14.1-32.5-47.1-53.4-84.5-53.4c-38.4,0-71.4,20.9-85,53.4c-2.4,5.8-7.8,9.2-13.6,9.2c-1.9,0-3.9-0.5-5.3-1
	c-7.3-2.9-11.2-11.7-7.8-18.9c18-43.2,62.2-71.4,112.2-71.4C359.9,426.6,403.6,454.8,422.6,498z M209.8,326.1
	c0-16.5,13.6-30.1,30.1-30.1s30.1,13.6,30.1,30.1c0,16.5-13.6,30.1-30.1,30.1C223.4,356.2,209.8,343.1,209.8,326.1z M346.3,326.1
	c0-16.5,13.6-30.1,30.1-30.1c16.5,0,30.1,13.6,30.1,30.1c0,16.5-13.6,30.1-30.1,30.1C359.9,356.2,346.3,343.1,346.3,326.1z"/>
</svg>
