<?xml version="1.0" encoding="utf-8"?>
<!-- Generator: Adobe Illustrator 18.1.1, SVG Export Plug-In . SVG Version: 6.00 Build 0)  -->
<svg version="1.1" id="Layer_1" xmlns="http://www.w3.org/2000/svg" xmlns:xlink="http://www.w3.org/1999/xlink" x="0px" y="0px"
	 viewBox="0 0 612 792" enable-background="new 0 0 612 792" xml:space="preserve">
<path fill="#006600" stroke="#000000" stroke-miterlimit="10" d="M220,171.1c-58.3,6.3-142.3,136-142.3,136v184.6l81.1,90.8
	l168.5,54.9l122.9-45.2l90.8-149.1V300.8l-74.3-97.1l-129.7-45.2L220,171.1z"/>
<path d="M488.1,213.9c-100.5-100.5-263.7-100.5-364.3,0s-100.5,263.7,0,364.3s263.7,100.5,364.3,0S588.7,314.4,488.1,213.9z
	 M460,550c-85,85-223.4,85-308.4,0s-85-223.4,0-308.4s223.4-85,308.4,0C545,327,545,465,460,550z M209.8,326.1
	c0-16.5,13.6-30.1,30.1-30.1s30.1,13.6,30.1,30.1c0,16.5-13.6,30.1-30.1,30.1C223.4,356.2,209.8,343.1,209.8,326.1z M346.3,326.1
	c0-16.5,13.6-30.1,30.1-30.1c16.5,0,30.1,13.6,30.1,30.1c0,16.5-13.6,30.1-30.1,30.1C359.9,356.2,346.3,343.1,346.3,326.1z
	 M417.7,449.4c-18.5,43.2-62.2,70.9-111.2,70.9c-50,0-94.2-28.2-112.2-71.4c-2.9-7.3,0.5-16,7.8-18.9c1.9-1,3.9-1,5.3-1
	c5.8,0,11.2,3.4,13.6,9.2c13.6,32.5,47.1,53.4,85,53.4c37.4,0,70.4-20.9,84.5-53.4c3.4-7.3,11.7-10.7,18.9-7.8
	C417.2,433.9,420.6,442.1,417.7,449.4z"/>
</svg>
