<?xml version="1.0" encoding="utf-8"?>
<!-- Generator: Adobe Illustrator 18.1.1, SVG Export Plug-In . SVG Version: 6.00 Build 0)  -->
<svg version="1.1" id="Layer_1" xmlns="http://www.w3.org/2000/svg" xmlns:xlink="http://www.w3.org/1999/xlink" x="0px" y="0px"
	 viewBox="-242 334 126 126" enable-background="new -242 334 126 126" xml:space="preserve">
<path fill="#353535" stroke="#000000" stroke-miterlimit="10" d="M-196.7,350.7c-12,1.3-29.3,28-29.3,28v38l16.7,18.7l34.7,11.3
	l25.3-9.3l18.7-30.7v-29.3l-15.3-20l-26.7-9.3L-196.7,350.7z"/>
<path d="M-141.5,359.5c-20.7-20.7-54.3-20.7-75,0c-20.7,20.7-20.7,54.3,0,75c20.7,20.7,54.3,20.7,75,0
	C-120.8,413.8-120.8,380.2-141.5,359.5z M-147.3,428.7c-17.5,17.5-46,17.5-63.5,0c-17.5-17.5-17.5-46,0-63.5
	c17.5-17.5,46-17.5,63.5,0C-129.8,382.8-129.8,411.2-147.3,428.7z M-198.8,382.6c0-3.4,2.8-6.2,6.2-6.2c3.4,0,6.2,2.8,6.2,6.2
	c0,3.4-2.8,6.2-6.2,6.2C-196,388.8-198.8,386.1-198.8,382.6z M-170.7,382.6c0-3.4,2.8-6.2,6.2-6.2s6.2,2.8,6.2,6.2
	c0,3.4-2.8,6.2-6.2,6.2C-167.9,388.8-170.7,386.1-170.7,382.6z M-156,408c-3.8,8.9-12.8,14.6-22.9,14.6c-10.3,0-19.4-5.8-23.1-14.7
	c-0.6-1.5,0.1-3.3,1.6-3.9c0.4-0.2,0.8-0.2,1.1-0.2c1.2,0,2.3,0.7,2.8,1.9c2.8,6.7,9.7,11,17.5,11c7.7,0,14.5-4.3,17.4-11
	c0.7-1.5,2.4-2.2,3.9-1.6C-156.1,404.8-155.4,406.5-156,408z"/>
</svg>
